<?xml version="1.0" encoding="utf-8"?>
<!-- Generator: Adobe Illustrator 24.0.3, SVG Export Plug-In . SVG Version: 6.00 Build 0)  -->
<svg version="1.1" id="Layer_1" xmlns="http://www.w3.org/2000/svg" xmlns:xlink="http://www.w3.org/1999/xlink" x="0px" y="0px"
	 viewBox="0 0 612 792" style="enable-background:new 0 0 612 792;" xml:space="preserve">
<style type="text/css">
	.st0{fill:none;}
	.st1{fill:none;stroke:#000000;stroke-miterlimit:10;}
	.st2{font-family:'darloune';}
	.st3{font-size:36px;}
</style>
<g>
	<g>
		<path d="M235.4,392.97c1.58-2.45,3.03-5.02,4.59-7.5c1.54-2.5,3.12-4.98,4.73-7.43c1.61-2.45,3.27-4.87,4.97-7.27
			c1.68-2.4,3.49-4.72,5.13-7.15c6.45-9.8,12.38-19.95,18.37-30.04l8.9-15.19l2.22-3.8l1.11-1.9l0.56-0.95
			c0.2-0.32,0.37-0.66,0.67-0.89c1.13-0.98,2.52-1.56,3.89-2.07c1.39-0.49,2.81-0.88,4.25-1.2c2.87-0.63,5.79-1.05,8.74-1.17
			c0.74-0.02,1.47-0.03,2.22,0.05c0.36,0.05,0.77,0.06,1.1,0.34c0.3,0.24,0.56,0.5,0.81,0.77c1.01,1.07,1.97,2.18,2.94,3.28
			c0.97,1.1,1.92,2.23,2.9,3.31c0.94,1.1,2.24,1.86,3.65,2.09c0.69,0.11,1.46,0.05,2.2,0.3c0.72,0.25,1.4,0.65,1.91,1.24
			c0.96,1.16,1.69,2.43,2.46,3.69l2.25,3.79c0.36,0.65,0.75,1.25,1.05,1.98c0.25,0.7,0.46,1.42,0.6,2.15
			c0.14,0.73,0.21,1.48,0.23,2.22c0.04,0.74,0,1.48,0.17,2.13c0.16,0.63,0.7,1.14,1.33,1.26c0.64,0.11,1.38-0.07,2.09-0.18
			c2.88-0.53,5.92-0.79,8.83-0.25c1.43,0.2,2.89,0.12,4.35,0.08c1.46-0.06,2.91-0.18,4.31-0.53c2.81-0.65,5.33-2.32,7.11-4.58
			c1.78-2.25,2.97-5.02,3.31-7.87c0.34-2.85-0.21-5.82-1.62-8.32c-0.7-1.25-1.61-2.38-2.65-3.38c-1.04-1.01-2.17-1.92-3.4-2.66
			c-1.23-0.74-2.57-1.32-3.96-1.5c-0.69-0.11-1.39-0.05-2.13,0.01c-0.72,0.06-1.45,0.15-2.16,0.26c-0.71,0.12-1.41,0.28-2.11,0.48
			c-0.18,0.05-0.36,0.1-0.58,0.13c-0.22,0.04-0.54,0-0.74-0.13c-0.47-0.23-0.67-0.75-0.74-1.14c-0.12-0.82-0.01-1.55,0.02-2.27
			c0.04-0.72,0.05-1.44-0.09-2.1c-0.13-0.66-0.45-1.27-0.95-1.68c-0.49-0.41-1.14-0.58-1.86-0.65c-0.7-0.09-1.5-0.1-2.26-0.5
			c-0.74-0.4-1.31-1.17-1.36-2.04c-0.04-0.84,0.15-1.54,0.24-2.26c0.1-0.72,0.17-1.43,0.2-2.15c0.05-1.44-0.02-2.89-0.21-4.33
			c-0.19-1.44-0.47-2.86-0.91-4.24c-0.21-0.69-0.47-1.38-0.65-2.13c-0.18-0.75-0.26-1.5-0.27-2.26c-0.04-0.75,0.12-1.58,0.22-2.23
			c0.07-0.64-0.06-1.36-0.28-1.98c-0.23-0.62-0.65-1.2-1.07-1.8c-0.42-0.6-0.85-1.21-1.25-1.83c-0.8-1.26-1.57-2.48-2.29-3.81
			c-0.34-0.65-0.69-1.45-0.66-2.27c-0.02-0.79,0.13-1.57,0.38-2.3c0.51-1.46,1.31-2.72,2.07-3.98c0.39-0.62,0.75-1.25,1.22-1.88
			c0.12-0.16,0.25-0.32,0.43-0.47c0.17-0.14,0.47-0.33,0.85-0.26c0.38,0.08,0.56,0.33,0.69,0.52c0.13,0.2,0.21,0.39,0.28,0.58
			c0.49,1.52,0.55,2.99,0.58,4.5c0,1.49-0.18,3-0.48,4.45c-0.14,0.73-0.27,1.39-0.15,2.03c0.1,0.69,0.31,1.35,0.61,1.98
			c0.6,1.27,1.42,2.53,2.17,3.76c0.39,0.61,0.79,1.19,1.28,1.64c0.48,0.44,1.1,0.77,1.71,0.9c0.57,0.11,1.44-0.01,2.21,0.24
			c0.75,0.2,1.53,0.57,2.11,1.11c0.57,0.53,1.05,1.03,1.6,1.49c0.55,0.45,1.14,0.89,1.73,1.29c1.17,0.81,2.46,1.42,3.84,1.59
			c0.68,0.08,1.41,0.1,2.08,0c0.67-0.09,1.32-0.32,1.71-0.75c0.39-0.43,0.5-1.08,0.41-1.73c-0.09-0.66-0.32-1.33-0.72-1.78
			c-0.39-0.46-0.98-0.57-1.64-0.46c-0.65,0.11-1.31,0.38-1.95,0.7c-0.33,0.16-0.61,0.33-1.02,0.51c0.1,0.56-1.03-0.6-0.56-0.74
			c0.1-0.12,0.17-0.17,0.25-0.24l0.45-0.35c0.59-0.44,1.18-0.87,1.75-1.32c0.55-0.45,1.12-0.93,1.49-1.45
			c0.2-0.27,0.22-0.52,0.17-0.49c-0.15-0.15-0.52-0.32-0.83-0.46c-0.67-0.3-1.32-0.58-2.01-0.83l-0.28-0.11
			c-0.1-0.09-0.21,0-0.43-0.4c-0.03-0.65,0.35-0.59,0.4-0.67c0.12-0.05,0.22-0.07,0.32-0.1c0.39-0.09,0.76-0.13,1.12-0.18
			c0.36-0.05,0.72-0.1,1.07-0.16c0.33-0.06,0.73-0.16,0.86-0.26c0.03-0.03-0.03,0.02-0.02,0.12c0.02,0.09,0.03,0.06-0.01,0.03
			c-0.09-0.07-0.25-0.15-0.4-0.23c-0.32-0.16-0.67-0.31-1.01-0.51c-0.66-0.37-1.39-1.03-1.51-1.94c-0.06-0.43-0.02-0.85,0.09-1.25
			c0.13-0.4,0.29-0.81,0.73-1.13c0.22-0.17,0.6-0.21,0.85-0.12c0.26,0.08,0.44,0.22,0.6,0.36c0.32,0.28,0.55,0.58,0.78,0.89
			c0.45,0.62,0.82,1.25,1.21,1.88c0.19,0.31,0.38,0.62,0.58,0.92c0.19,0.29,0.42,0.6,0.61,0.74c0.04,0.04,0.06,0.02-0.01,0.02
			c-0.08,0.01-0.1,0.08-0.08,0.03c0.04-0.06,0.07-0.24,0.09-0.39c0.03-0.33,0.03-0.69,0.02-1.05c-0.02-0.73-0.09-1.44-0.07-2.23
			c0-0.1,0.01-0.2,0.03-0.32c0.05-0.12-0.04-0.23,0.28-0.5c0.59-0.18,0.65,0.23,0.71,0.25c0.07,0.11,0.11,0.19,0.15,0.28
			c0.16,0.35,0.29,0.68,0.45,0.99c0.31,0.62,0.76,1.14,1.25,1.01c0.54-0.12,1.02-0.69,1.63-1.19c0.17-0.1,0.34-0.32,0.79-0.26
			c0.25,0.01,0.47,0.42,0.42,0.54c0,0.16-0.02,0.26-0.04,0.37c-0.1,0.4-0.23,0.73-0.34,1.08c-0.22,0.68-0.4,1.37-0.36,2.03
			c0.02,0.67,0.32,1.23,0.81,1.71c0.25,0.25,0.53,0.45,0.82,0.78c0.07,0.09,0.15,0.18,0.21,0.34c0.06,0.15,0.05,0.36-0.02,0.52
			c-0.16,0.34-0.45,0.44-0.63,0.51c-0.2,0.07-0.39,0.11-0.54,0.16c-0.15,0.04-0.27,0.12-0.25,0.12c-0.06-0.05,0.13,0.33,0.38,0.53
			c0.5,0.48,1.1,0.85,1.71,1.37c0.07,0.12,0.18,0.05,0.26,0.49c-0.39,0.67-0.56,0.26-0.65,0.35c-0.22-0.05-0.39-0.11-0.57-0.16
			c-0.35-0.12-0.69-0.24-1.03-0.34c-0.34-0.1-0.69-0.18-0.98-0.18c-0.32,0.04-0.29,0.02-0.29,0.34c0.08,0.6,0.45,1.28,0.78,1.9
			c0.34,0.65,0.73,1.24,1.06,1.96c0.04,0.1,0.08,0.19,0.11,0.33c0.21,0.07-0.3,0.75-0.54,0.53c-0.3-0.11-0.41-0.23-0.58-0.35
			c-0.3-0.24-0.58-0.48-0.85-0.71c-0.27-0.23-0.56-0.47-0.83-0.6c-0.06-0.03-0.13-0.05-0.11-0.04c0.07,0.04,0.19-0.18,0.15-0.13
			c0,0.06,0.06,0.25,0.12,0.41c0.26,0.65,0.6,1.35,0.78,2.1c0.19,0.73,0.23,1.65-0.28,2.38c-0.5,0.72-1.3,1.04-2.02,1.24
			c-0.72,0.2-1.47,0.35-2.24,0.38c-1.52,0.07-3.03-0.24-4.43-0.76c-1.4-0.53-2.74-1.24-3.91-2.2c-0.58-0.47-1.11-0.98-1.67-1.42
			c-0.56-0.43-1.17-0.78-1.84-1.03c-1.33-0.45-2.81-0.95-4.11-0.62c-0.64,0.17-1.09,0.67-1.19,1.33c-0.12,0.65-0.03,1.38,0.09,2.08
			c0.26,1.4,1.08,2.58,2.04,3.69c0.93,1.13,1.86,2.27,2.91,3.26c1.04,1,2.27,1.76,3.63,2.23c2.71,1.01,5.72,0.97,8.52,0.22
			c2.82-0.7,5.41-2.16,7.53-4.14c1.06-0.99,2.19-1.97,2.88-3.2c0.34-0.61,0.51-1.31,0.43-1.98c-0.05-0.69-0.54-1.26-0.66-2.09
			c-0.09-0.82,0.36-1.65,1.01-2.08c0.62-0.44,1.28-0.75,1.62-1.34c0.38-0.58,0.36-1.27,0.07-1.92c-0.27-0.65-0.64-1.3-0.96-1.96
			c-0.66-1.33-1.12-2.76-1.37-4.23c-0.31-1.49,0.11-2.99-0.4-4.34c-0.44-1.37-1.09-2.7-2.07-3.75c-0.97-1.06-2.26-1.8-3.66-2.14
			c-1.4-0.35-2.88-0.37-4.3-0.16c-0.69,0.09-1.43,0.42-2.22,0.28c-0.76-0.09-1.49-0.42-2.07-0.9c-0.58-0.47-1.09-0.99-1.78-1.12
			c-0.68-0.16-1.39,0.03-2,0.38c-1.23,0.73-2.35,1.72-3.48,2.63c-1.11,0.94-2.09,2.04-2.76,3.32c-0.69,1.28-1.25,2.65-1.38,4.08
			c-0.14,1.43,0.31,2.89,1.35,3.89c0.5,0.52,1.1,0.9,1.68,1.41c0.12,0.13,0.34,0.3,0.3,0.62c-0.08,0.29-0.32,0.4-0.5,0.48
			c-0.39,0.14-0.77,0.15-1.15,0.15c-1.51-0.03-3.02-0.7-4-1.87c-1.01-1.15-1.51-2.59-1.98-3.98c-0.9-2.83-1.19-5.81-1.2-8.74
			c-0.02-2.94,0.13-5.88,0.1-8.8c-0.01-1.47-0.07-2.92-0.15-4.39c-0.06-1.47,0.07-3.01,0.66-4.41c0.29-0.69,0.67-1.36,1.16-1.94
			c0.51-0.58,1.03-1.03,1.37-1.67c0.76-1.21,0.81-2.71,1-4.15l0.45-4.38c0.09-0.73,0.12-1.46,0.36-2.22
			c0.29-0.72,0.71-1.38,1.3-1.89c0.58-0.51,1.15-0.9,1.58-1.47c0.43-0.55,0.79-1.19,1.03-1.85c0.24-0.66,0.29-1.36,0.37-2.11
			c0.09-0.75,0.35-1.51,0.75-2.16c0.8-1.31,2-2.31,3.34-2.99c0.67-0.34,1.39-0.6,2.13-0.76c0.73-0.17,1.55-0.21,2.29,0.01
			c1.44,0.42,2.8,0.89,4.22,1.23c1.42,0.34,2.85,0.68,4.28,0.93c1.43,0.24,2.88,0.36,4.33,0.32c0.72-0.01,1.43-0.09,2.16-0.2
			c0.72-0.12,1.52-0.19,2.27-0.06c1.5,0.22,2.93,0.82,4.16,1.69c1.24,0.87,2.28,1.93,3.21,3.13c0.95,1.2,1.42,2.69,1.9,4.04
			c0.49,1.36,1.14,2.65,1.94,3.87c0.4,0.6,0.81,1.2,1.26,1.77c0.44,0.58,0.93,1.12,1.36,1.75c0.86,1.29,1.28,2.76,1.55,4.24
			c0.24,1.48,0.22,3.03-0.14,4.5c-0.35,1.48-1.11,2.85-2.06,4.02c-0.95,1.17-2.05,2.17-3.14,3.16l-3.28,2.94l-6.58,5.85l-1.67,1.44
			l-0.85,0.71l-0.45,0.35c-0.08,0.06-0.16,0.11-0.25,0.17c0.26,0.12-0.81,0.18-0.77-0.33c0.03-0.38,0.13-0.49,0.21-0.69
			c0.09-0.18,0.18-0.35,0.27-0.51c0.19-0.33,0.39-0.65,0.6-0.96c0.41-0.62,0.85-1.22,1.31-1.8c1.83-2.33,3.89-4.49,6.25-6.31
			c1.18-0.91,2.44-1.73,3.82-2.35c1.37-0.62,2.89-1.03,4.45-0.96c1.57,0.08,3.04,0.72,4.3,1.57c1.25,0.87,2.34,1.91,3.32,3.03
			c0.99,1.12,1.88,2.29,2.76,3.49c0.86,1.22,1.63,2.51,2.28,3.85c0.65,1.34,1.19,2.74,1.59,4.19c0.2,0.72,0.35,1.47,0.43,2.23
			c0.08,0.76,0.09,1.49,0.17,2.19c0.15,1.39,0.64,2.76,1.21,4.08c0.56,1.32,1.36,2.51,2.08,3.84c0.73,1.34,1.13,2.85,1.32,4.34
			c0.19,1.51,0.13,3,0.1,4.47c-0.03,1.48-0.21,3-0.51,4.44c-0.31,1.4-0.28,2.81-0.11,4.23c0.1,0.7,0.25,1.4,0.44,2.09
			c0.19,0.69,0.45,1.38,0.58,2.19c0.06,0.41,0.05,0.85-0.05,1.27c-0.11,0.42-0.29,0.79-0.52,1.14c-0.47,0.74-1.28,1.15-1.86,1.48
			c-1.18,0.67-2.07,1.84-2.52,3.1c-0.23,0.64-0.26,1.33-0.5,2.13c-0.27,0.83-0.89,1.52-1.71,1.86c-0.85,0.32-1.62,0.23-2.34,0.26
			c-0.73,0.01-1.45,0.03-2.17,0.08c-1.43,0.11-2.9,0.33-4.3,0.59c-1.37,0.27-2.7,0.86-3.72,1.75c-0.51,0.45-0.92,1.03-1.5,1.59
			c-0.58,0.56-1.31,0.96-2.06,1.2c-1.51,0.48-3.09,0.45-4.58,0.2c-1.5-0.26-2.94-0.77-4.29-1.45c-1.34-0.69-2.6-1.58-3.66-2.69
			c-0.54-0.55-0.96-1.22-1.4-1.71c-0.2-0.25-0.52-0.46-0.55-0.44c0,0.01,0.05-0.05,0,0.03c-0.04,0.07-0.07,0.23-0.09,0.38
			c-0.08,0.66-0.06,1.44-0.19,2.21c-0.12,0.77-0.43,1.61-1.07,2.22c-0.63,0.59-1.4,0.9-2.16,1.09c-0.76,0.19-1.53,0.26-2.29,0.27
			c-1.52,0-3.03-0.21-4.49-0.72c-0.36-0.13-0.73-0.29-1.08-0.49c-0.34-0.22-0.73-0.44-0.97-1c-0.12-0.29-0.07-0.66,0.04-0.88
			c0.1-0.24,0.23-0.43,0.37-0.59c0.28-0.33,0.59-0.58,0.92-0.8c1.3-0.88,2.78-1.39,4.33-1.55c1.53-0.16,3.19,0.15,4.52,1.01
			c1.33,0.84,2.37,2.08,2.99,3.52c0.31,0.72,0.51,1.5,0.51,2.32c0.02,0.81-0.22,1.67-0.72,2.35c-1.03,1.35-2.56,1.93-3.99,2.36
			c-1.46,0.41-2.94,0.63-4.42,0.77c-2.96,0.28-5.92,0.24-8.85,0.17c-2.92-0.06-5.91-0.07-8.85-0.68c-1.48-0.31-2.89-0.72-4.31-1.34
			c-1.34-0.69-2.59-1.42-3.88-2.14l-7.66-4.34c-1.27-0.72-2.55-1.48-3.81-2.15c-1.26-0.63-2.65-1.11-4.03-1.63
			c-0.7-0.26-1.41-0.58-2.06-1c-0.66-0.42-1.24-0.9-1.8-1.4c-1.14-1-2.12-2.29-2.62-3.79c-0.46-1.5-0.61-3.07-0.19-4.63
			c0.21-0.77,0.61-1.51,1.17-2.11c0.56-0.6,1.28-1.03,2.02-1.31c1.5-0.55,3.03-0.58,4.49-0.66c1.48-0.06,2.97-0.04,4.45,0.04
			c2.96,0.17,5.89,0.48,8.81,1.19c0.18,0.05,0.37,0.1,0.56,0.17c0.1,0.04,0.19,0.06,0.34,0.15c0.51,0.04-0.22,1.65-0.24,1.05
			c-0.47,0.07-0.81,0.06-1.2,0.06c-0.76-0.02-1.5-0.08-2.24-0.18c-1.48-0.2-2.95-0.51-4.38-1.01c-1.41-0.52-2.84-1.21-3.9-2.44
			c-0.93-1.14-1.89-2.21-2.91-3.25c-1.03-1.06-2.04-2.02-3.29-2.73c-1.24-0.73-2.56-1.38-3.86-2.06c-0.33-0.19-0.67-0.31-1.05-0.72
			c-0.39-0.5-0.3-1.09-0.12-1.5c0.4-0.82,0.97-1.29,1.46-1.83c1.02-0.99,1.68-2.24,2.35-3.55c0.65-1.3,1.31-2.63,1.91-3.94
			c0.62-1.32,1.03-2.67,1.44-4.1c0.43-1.43,0.98-2.81,1.59-4.16c0.6-1.35,1.28-2.69,2.06-3.94c0.39-0.63,0.72-1.22,0.92-1.89
			c0.2-0.67,0.36-1.38,0.4-2.06c0.04-0.68-0.05-1.4-0.11-2.14c-0.07-0.73-0.12-1.47-0.16-2.21c-0.08-1.48-0.09-2.95-0.08-4.42
			c0.03-1.48,0.04-2.96,0.34-4.46c0.16-0.74,0.43-1.53,0.99-2.14c0.54-0.61,1.24-1.01,1.89-1.34c0.33-0.17,0.65-0.33,0.87-0.51
			c0.19-0.18,0.23-0.34,0.12-0.54c-0.29-0.44-1.06-0.72-1.65-1.33c-0.3-0.31-0.55-0.86-0.32-1.39c0.23-0.46,0.54-0.68,0.84-0.94
			c0.59-0.48,1.21-0.88,1.83-1.29c1.24-0.8,2.5-1.57,3.8-2.27c1.27-0.68,2.41-1.57,3.44-2.58c0.26-0.25,0.51-0.53,0.86-0.77
			c0.34-0.25,0.78-0.37,1.17-0.42c0.82-0.1,1.64,0.18,2.29,0.58c0.33,0.19,0.64,0.42,0.94,0.62c0.29,0.2,0.61,0.42,0.83,0.46
			c0.18,0.05,0.31-0.1,0.41-0.41c0.09-0.29,0.1-0.64,0.09-0.99c-0.08-1.4-0.56-2.79-1.22-4.05c-0.69-1.24-1.59-2.42-2.71-3.26
			c-1.13-0.83-2.54-1.29-3.93-1.07c-1.4,0.19-2.78,0.72-4.16,1.21c-1.38,0.5-2.76,0.99-4.12,1.53c-1.36,0.53-2.63,1.2-3.74,2.13
			c-0.56,0.45-1.08,0.95-1.58,1.48c-0.5,0.52-0.98,1.1-1.6,1.57c-0.62,0.48-1.38,0.75-2.15,0.84c-0.79,0.12-1.59-0.19-2.24-0.37
			c-0.67-0.18-1.38-0.15-2.05,0.03c-0.67,0.18-1.28,0.55-1.86,0.98c-1.14,0.87-2.17,1.93-3.2,2.97c-1.02,1.05-2.06,2.09-3.03,3.18
			c-1.95,2.17-3.58,4.62-4.85,7.24c-1.23,2.65-2.52,5.3-3.31,8.12c-0.38,1.41-0.79,2.83-1.04,4.26c-0.11,0.71-0.16,1.44,0.01,2.13
			c0.17,0.69,0.5,1.34,0.94,1.9c0.89,1.13,2.15,1.94,3.39,2.7c1.26,0.74,2.52,1.51,3.84,2.13c0.66,0.31,1.35,0.58,2,0.93
			c0.65,0.35,1.28,0.74,1.89,1.15c1.22,0.82,2.39,1.72,3.46,2.74c1.06,1.02,1.99,2.18,2.82,3.39c0.84,1.2,1.63,2.45,2.32,3.75
			l-0.09,0.05c-0.7-1.29-1.49-2.53-2.34-3.72c-0.84-1.2-1.77-2.34-2.83-3.35c-1.06-1-2.23-1.89-3.45-2.7
			c-0.61-0.4-1.23-0.78-1.88-1.13c-0.64-0.34-1.32-0.61-1.99-0.92c-1.34-0.62-2.6-1.38-3.87-2.12c-1.25-0.76-2.53-1.56-3.48-2.74
			c-0.47-0.59-0.82-1.27-1.01-2.01c-0.19-0.74-0.14-1.51-0.03-2.24c0.25-1.47,0.65-2.87,1.02-4.3c0.78-2.86,2.05-5.52,3.27-8.2
			c1.26-2.67,2.91-5.16,4.86-7.37c0.98-1.11,2.01-2.15,3.04-3.2c1.03-1.05,2.05-2.11,3.24-3.03c0.6-0.44,1.26-0.86,2.02-1.06
			c0.75-0.21,1.55-0.24,2.3-0.04c0.75,0.21,1.38,0.46,2.06,0.35c0.68-0.08,1.35-0.33,1.9-0.75c0.55-0.41,1.02-0.98,1.53-1.52
			c0.51-0.54,1.04-1.06,1.62-1.53c1.14-0.97,2.5-1.68,3.87-2.22c1.37-0.55,2.75-1.04,4.13-1.56c1.39-0.49,2.77-1.03,4.28-1.25
			c1.53-0.25,3.13,0.27,4.35,1.17c1.23,0.93,2.15,2.14,2.9,3.45c0.7,1.33,1.21,2.77,1.31,4.31c0.02,0.39,0.01,0.78-0.11,1.19
			c-0.06,0.2-0.15,0.42-0.34,0.61c-0.17,0.2-0.53,0.3-0.78,0.25c-0.5-0.11-0.78-0.36-1.1-0.56c-0.3-0.21-0.59-0.42-0.9-0.59
			c-0.6-0.35-1.25-0.57-1.9-0.49c-0.33,0.04-0.63,0.13-0.87,0.31c-0.26,0.18-0.51,0.45-0.77,0.7c-1.06,1.04-2.25,1.98-3.57,2.7
			c-1.28,0.7-2.52,1.47-3.75,2.26c-0.61,0.4-1.22,0.81-1.76,1.25c-0.26,0.22-0.54,0.47-0.64,0.68c-0.07,0.16-0.01,0.42,0.19,0.62
			c0.2,0.22,0.5,0.41,0.81,0.61c0.3,0.21,0.65,0.41,0.93,0.83c0.32,0.44,0.13,1.16-0.25,1.44c-0.35,0.29-0.69,0.45-1.01,0.62
			c-0.65,0.33-1.24,0.69-1.68,1.18c-0.44,0.48-0.67,1.13-0.81,1.82c-0.28,1.38-0.29,2.86-0.31,4.31c-0.01,1.46,0.02,2.92,0.1,4.38
			c0.04,0.73,0.1,1.45,0.16,2.18c0.06,0.73,0.16,1.47,0.12,2.25c-0.04,0.79-0.22,1.52-0.43,2.25c-0.22,0.74-0.61,1.45-1,2.06
			c-0.77,1.24-1.41,2.53-2,3.86c-0.59,1.33-1.13,2.68-1.54,4.07c-0.4,1.39-0.84,2.86-1.47,4.2c-0.62,1.36-1.25,2.66-1.91,3.99
			c-0.66,1.3-1.38,2.69-2.48,3.76c-0.49,0.53-1.05,1.06-1.29,1.58c-0.12,0.24-0.09,0.5-0.01,0.58c0.11,0.14,0.47,0.33,0.78,0.49
			c1.3,0.67,2.62,1.31,3.92,2.07c0.65,0.38,1.28,0.82,1.86,1.31c0.58,0.5,1.1,1.03,1.62,1.55c1.04,1.05,2.05,2.16,2.97,3.29
			c0.88,1.01,2.18,1.67,3.5,2.15c1.34,0.47,2.76,0.77,4.18,0.95c0.71,0.09,1.43,0.15,2.14,0.16c0.34,0.01,0.73,0,0.99-0.04
			c0.16-0.59-0.3,0.83-0.07,0.77c-0.01-0.01-0.1-0.04-0.17-0.07c-0.15-0.05-0.32-0.1-0.49-0.14c-2.79-0.66-5.72-0.98-8.62-1.15
			c-1.45-0.08-2.91-0.1-4.36-0.04c-1.45,0.07-2.91,0.12-4.18,0.59c-1.27,0.45-2.25,1.46-2.59,2.76c-0.36,1.28-0.23,2.76,0.17,4.05
			c0.43,1.3,1.28,2.43,2.34,3.37c0.53,0.47,1.09,0.93,1.67,1.3c0.59,0.37,1.22,0.66,1.89,0.91c1.36,0.52,2.76,0.99,4.12,1.68
			c1.33,0.7,2.57,1.45,3.85,2.18l7.66,4.34c1.27,0.71,2.56,1.46,3.83,2.11c1.27,0.55,2.69,0.97,4.08,1.26
			c2.82,0.58,5.74,0.6,8.68,0.66c2.93,0.07,5.85,0.11,8.74-0.16c1.44-0.14,2.88-0.35,4.24-0.74c1.34-0.39,2.71-0.97,3.48-2
			c0.77-1.01,0.63-2.5,0.1-3.73c-0.54-1.26-1.47-2.36-2.62-3.09c-2.31-1.5-5.53-0.98-7.79,0.52c-0.28,0.19-0.54,0.41-0.74,0.64
			c-0.21,0.24-0.29,0.48-0.24,0.52c0.04,0.13,0.3,0.36,0.57,0.52c0.28,0.16,0.6,0.3,0.92,0.42c1.31,0.46,2.75,0.67,4.16,0.67
			c1.38-0.02,2.88-0.25,3.81-1.1c0.44-0.41,0.68-1.02,0.79-1.69c0.12-0.68,0.1-1.38,0.19-2.18c0.03-0.2,0.06-0.42,0.18-0.68
			c0.09-0.26,0.48-0.59,0.86-0.55c0.37,0.02,0.59,0.18,0.78,0.31c0.18,0.14,0.33,0.29,0.46,0.44c0.53,0.61,0.9,1.19,1.39,1.69
			c0.97,1.02,2.14,1.85,3.41,2.5c1.27,0.65,2.63,1.12,4.02,1.36c1.39,0.24,2.83,0.25,4.13-0.17c0.65-0.21,1.23-0.53,1.71-0.99
			c0.48-0.46,0.93-1.08,1.52-1.61c1.19-1.04,2.65-1.67,4.15-1.97c1.48-0.27,2.92-0.48,4.42-0.6c0.74-0.06,1.49-0.08,2.23-0.09
			c0.73-0.01,1.48,0.02,2.01-0.19c0.53-0.22,1.01-0.71,1.17-1.29c0.19-0.6,0.24-1.4,0.51-2.14c0.54-1.49,1.55-2.79,2.92-3.59
			c0.68-0.39,1.23-0.68,1.57-1.21c0.36-0.55,0.53-1.13,0.43-1.77c-0.1-0.65-0.35-1.34-0.55-2.06c-0.21-0.72-0.37-1.47-0.47-2.22
			c-0.18-1.49-0.2-3.05,0.12-4.53c0.3-1.44,0.47-2.84,0.5-4.3c0.03-1.46,0.09-2.92-0.09-4.33c-0.18-1.42-0.55-2.79-1.22-4.03
			c-0.67-1.25-1.52-2.51-2.11-3.9c-0.59-1.38-1.1-2.8-1.27-4.34c-0.09-0.76-0.1-1.5-0.17-2.2c-0.07-0.7-0.21-1.4-0.4-2.09
			c-0.38-1.38-0.9-2.74-1.52-4.04c-1.22-2.61-3-4.95-4.88-7.15c-0.95-1.09-1.99-2.09-3.15-2.9c-1.17-0.79-2.48-1.36-3.86-1.44
			c-1.38-0.07-2.78,0.29-4.07,0.87c-1.3,0.58-2.52,1.36-3.67,2.24c-2.29,1.76-4.33,3.88-6.13,6.15c-0.45,0.57-0.88,1.15-1.28,1.75
			c-0.2,0.3-0.4,0.6-0.57,0.91c-0.09,0.15-0.17,0.31-0.25,0.46c-0.07,0.13-0.14,0.35-0.14,0.34c0.02-0.23-0.76-0.33-0.38-0.29
			l0.2-0.14l0.42-0.33l0.84-0.69l1.67-1.43l6.6-5.83l3.29-2.93c1.09-0.98,2.17-1.96,3.07-3.07c0.91-1.11,1.6-2.37,1.94-3.75
			c0.35-1.38,0.37-2.83,0.15-4.24c-0.24-1.4-0.66-2.82-1.43-3.98c-0.39-0.58-0.88-1.13-1.33-1.73c-0.46-0.59-0.87-1.2-1.28-1.82
			c-0.81-1.24-1.49-2.59-1.98-3.99c-0.49-1.4-0.92-2.77-1.81-3.9c-1.73-2.26-4.12-4.21-6.98-4.61c-0.7-0.12-1.38-0.07-2.11,0.05
			c-0.73,0.11-1.48,0.19-2.22,0.2c-1.49,0.03-2.97-0.09-4.43-0.34c-1.46-0.26-2.89-0.6-4.32-0.94c-1.43-0.34-2.85-0.84-4.22-1.24
			c-1.34-0.37-2.8,0.11-4.07,0.7c-1.27,0.64-2.41,1.59-3.15,2.8c-0.37,0.6-0.6,1.26-0.69,1.97c-0.08,0.7-0.14,1.49-0.4,2.21
			c-0.27,0.72-0.64,1.38-1.11,1.98c-0.46,0.62-1.11,1.07-1.63,1.53c-0.52,0.46-0.91,1.07-1.17,1.7c-0.21,0.64-0.25,1.4-0.34,2.11
			l-0.46,4.38c-0.08,0.73-0.16,1.46-0.3,2.2c-0.12,0.73-0.37,1.49-0.77,2.13c-0.36,0.67-0.96,1.21-1.42,1.73
			c-0.46,0.54-0.82,1.17-1.1,1.82c-1.14,2.68-0.39,5.71-0.5,8.63c0.02,2.94-0.14,5.88-0.13,8.8c0,2.92,0.28,5.85,1.16,8.64
			c0.46,1.37,0.95,2.78,1.9,3.86c0.91,1.1,2.31,1.72,3.74,1.76c0.35,0.01,0.72-0.01,1.02-0.13c0.34-0.14,0.39-0.27,0.09-0.53
			c-0.52-0.46-1.17-0.87-1.69-1.42c-1.1-1.06-1.59-2.66-1.43-4.15c0.14-1.5,0.73-2.91,1.43-4.2c0.7-1.32,1.71-2.45,2.84-3.4
			c1.15-0.92,2.24-1.9,3.53-2.67c0.64-0.37,1.45-0.6,2.22-0.42c0.79,0.15,1.36,0.74,1.91,1.18c0.55,0.46,1.21,0.74,1.91,0.83
			c0.7,0.13,1.37-0.17,2.12-0.28c1.47-0.22,2.99-0.21,4.44,0.15c1.45,0.34,2.82,1.12,3.84,2.23c1.03,1.1,1.71,2.48,2.16,3.89
			c0.24,0.71,0.33,1.49,0.3,2.23c-0.02,0.73,0.01,1.45,0.13,2.16c0.24,1.43,0.7,2.81,1.34,4.11c0.31,0.66,0.69,1.28,0.98,1.99
			c0.32,0.68,0.36,1.62-0.1,2.29c-0.42,0.71-1.17,1.05-1.73,1.46c-0.57,0.38-0.9,1.03-0.84,1.69c0.07,0.63,0.59,1.28,0.67,2.08
			c0.1,0.78-0.1,1.58-0.47,2.25c-0.75,1.35-1.9,2.32-2.96,3.33c-2.16,2.03-4.83,3.55-7.72,4.27c-2.86,0.77-5.99,0.83-8.81-0.21
			c-1.41-0.49-2.74-1.3-3.82-2.33c-1.09-1.02-2.02-2.17-2.96-3.3c-0.96-1.08-1.89-2.4-2.17-3.92c-0.13-0.74-0.24-1.49-0.1-2.29
			c0.07-0.39,0.24-0.8,0.52-1.12c0.29-0.32,0.67-0.53,1.06-0.65c0.79-0.22,1.58-0.14,2.32,0c0.74,0.15,1.45,0.36,2.16,0.62
			c0.71,0.27,1.39,0.65,1.99,1.11c0.6,0.47,1.13,0.98,1.69,1.42c1.11,0.91,2.4,1.58,3.74,2.09c1.34,0.49,2.77,0.78,4.19,0.71
			c0.71-0.02,1.4-0.17,2.09-0.36c0.67-0.19,1.32-0.49,1.67-1c0.36-0.51,0.35-1.2,0.18-1.87c-0.17-0.68-0.48-1.31-0.76-2.02
			c-0.07-0.19-0.15-0.35-0.17-0.65c-0.06-0.14,0.21-0.55,0.47-0.5c0.21,0,0.31,0.06,0.42,0.11c0.39,0.21,0.66,0.45,0.95,0.68
			l0.84,0.7c0.12,0.1,0.31,0.22,0.35,0.23c-0.04-0.12-0.41,0.33-0.27,0.21c-0.01-0.04-0.03-0.11-0.07-0.19
			c-0.28-0.61-0.69-1.25-1.04-1.9c-0.34-0.67-0.73-1.29-0.87-2.15c-0.02-0.21-0.02-0.51,0.19-0.77c0.23-0.26,0.53-0.29,0.74-0.3
			c0.45-0.01,0.82,0.1,1.18,0.2c0.36,0.11,0.72,0.23,1.06,0.34c0.17,0.06,0.34,0.11,0.49,0.14c0.07,0.11,0.16-0.21-0.16,0.27
			c0.05,0.26,0.01,0.06-0.05,0.05c-0.5-0.43-1.16-0.84-1.73-1.37c-0.14-0.14-0.28-0.28-0.41-0.48c-0.11-0.17-0.28-0.49-0.11-0.86
			c0.2-0.35,0.47-0.39,0.65-0.46c0.2-0.06,0.37-0.1,0.52-0.15c0.15-0.05,0.23-0.12,0.22-0.13c0.01,0,0.01-0.01-0.08-0.14
			c-0.19-0.22-0.51-0.46-0.78-0.73c-0.58-0.52-1.01-1.35-1.03-2.17c-0.04-0.81,0.16-1.57,0.39-2.28c0.11-0.35,0.25-0.71,0.32-1.02
			c0.02-0.07,0.03-0.15,0.03-0.18c-0.04-0.06,0.07,0.15,0.13,0.13c0.08-0.01-0.08,0.03-0.2,0.13c-0.52,0.4-1,1.09-1.92,1.33
			c-0.47,0.12-1.01-0.08-1.33-0.39c-0.33-0.3-0.54-0.65-0.72-0.99c-0.18-0.34-0.32-0.7-0.47-1.01c-0.04-0.08-0.07-0.15-0.11-0.2
			c-0.03-0.11-0.11,0.07,0.29-0.01c0.16-0.16,0.05-0.06,0.07-0.01c-0.01,0.06-0.02,0.15-0.02,0.23c-0.01,0.69,0.06,1.43,0.08,2.17
			c0.01,0.37,0.02,0.75-0.02,1.15c-0.03,0.2-0.04,0.4-0.17,0.67c-0.05,0.12-0.22,0.33-0.49,0.36c-0.25,0.02-0.41-0.08-0.51-0.15
			c-0.4-0.31-0.58-0.62-0.8-0.94c-0.21-0.31-0.4-0.63-0.6-0.94c-0.38-0.63-0.76-1.25-1.18-1.82c-0.21-0.28-0.43-0.56-0.67-0.76
			c-0.12-0.11-0.24-0.18-0.33-0.21c-0.1-0.02-0.12-0.02-0.2,0.03c-0.36,0.27-0.58,1.06-0.48,1.63c0.07,0.59,0.54,1.04,1.14,1.38
			c0.3,0.17,0.62,0.32,0.96,0.48c0.17,0.09,0.34,0.16,0.55,0.32c0.09,0.08,0.24,0.19,0.3,0.47c0.05,0.29-0.14,0.51-0.25,0.59
			c-0.48,0.32-0.83,0.34-1.21,0.43c-0.38,0.07-0.74,0.12-1.11,0.17c-0.36,0.05-0.73,0.1-1.05,0.17c-0.08,0.02-0.15,0.04-0.2,0.06
			c-0.1-0.01,0.05,0.14,0.05-0.3c-0.14-0.23-0.06-0.08,0-0.08l0.23,0.09c0.69,0.25,1.38,0.55,2.06,0.85
			c0.35,0.17,0.68,0.28,1.07,0.63c0.09,0.08,0.22,0.28,0.24,0.44c0.03,0.16,0.02,0.32-0.01,0.44c-0.07,0.26-0.18,0.46-0.3,0.63
			c-0.49,0.68-1.07,1.15-1.64,1.63c-0.58,0.47-1.18,0.9-1.76,1.34l-0.42,0.33c-0.06,0.05-0.13,0.11-0.15,0.14
			c0.24,0.05-0.65-0.99-0.36-0.56c0.26-0.11,0.62-0.32,0.95-0.48c0.67-0.33,1.38-0.65,2.18-0.78c0.4-0.06,0.83-0.08,1.26,0.03
			c0.43,0.1,0.85,0.37,1.13,0.69c0.58,0.65,0.82,1.45,0.94,2.23c0.11,0.78,0,1.73-0.61,2.41c-0.61,0.67-1.46,0.91-2.22,1.03
			c-0.79,0.11-1.54,0.09-2.31,0c-1.55-0.19-2.99-0.87-4.23-1.72c-0.62-0.43-1.21-0.86-1.8-1.34c-0.58-0.47-1.12-1.04-1.63-1.5
			c-0.5-0.46-1.08-0.73-1.75-0.91c-0.33-0.09-0.64-0.13-0.99-0.14c-0.34-0.01-0.75,0.01-1.17-0.08c-0.83-0.17-1.54-0.57-2.14-1.12
			c-0.59-0.55-1.03-1.19-1.43-1.82c-0.77-1.28-1.56-2.49-2.21-3.87c-0.32-0.69-0.56-1.45-0.67-2.21c-0.14-0.81,0.03-1.63,0.17-2.33
			c0.3-1.43,0.47-2.84,0.48-4.29c-0.01-1.42-0.09-2.92-0.51-4.2c-0.09-0.3-0.33-0.6-0.34-0.57c0.03-0.05-0.28,0.15-0.47,0.42
			c-0.41,0.54-0.79,1.19-1.17,1.81c-0.76,1.25-1.54,2.49-2.01,3.81c-0.23,0.66-0.36,1.34-0.35,2.02c-0.02,0.67,0.24,1.27,0.57,1.91
			c0.67,1.26,1.47,2.52,2.24,3.74c0.39,0.61,0.81,1.21,1.23,1.81c0.41,0.6,0.88,1.22,1.16,1.98c0.26,0.76,0.4,1.52,0.32,2.34
			c-0.12,0.8-0.26,1.41-0.22,2.14c0.02,0.71,0.09,1.42,0.25,2.1c0.16,0.68,0.42,1.37,0.63,2.08c0.44,1.42,0.73,2.89,0.92,4.36
			c0.19,1.47,0.27,2.96,0.2,4.46c-0.03,0.75-0.11,1.49-0.21,2.23c-0.09,0.73-0.27,1.47-0.24,2.11c0.02,0.61,0.44,1.17,0.98,1.47
			c0.55,0.3,1.27,0.34,2.01,0.43c0.74,0.08,1.58,0.27,2.22,0.82c0.64,0.53,1.02,1.31,1.18,2.08c0.33,1.54-0.1,3.09,0.05,4.4
			c0.06,0.31,0.17,0.56,0.38,0.66c0.11,0.06,0.18,0.07,0.32,0.05c0.14-0.02,0.32-0.07,0.49-0.12c0.71-0.2,1.45-0.36,2.18-0.49
			c0.74-0.12,1.47-0.2,2.21-0.26c0.73-0.05,1.5-0.12,2.27,0c1.52,0.2,2.93,0.83,4.21,1.6c1.28,0.78,2.45,1.72,3.51,2.76
			c1.07,1.04,2.02,2.22,2.75,3.53c1.47,2.62,2.03,5.72,1.67,8.69c-0.37,2.98-1.59,5.81-3.46,8.15c-1.86,2.34-4.5,4.09-7.43,4.75
			c-1.45,0.36-2.94,0.48-4.42,0.53c-1.47,0.04-2.96,0.12-4.44-0.09c-2.88-0.54-5.8-0.29-8.68,0.22c-0.72,0.11-1.45,0.31-2.27,0.17
			c-0.82-0.16-1.5-0.82-1.7-1.61c-0.19-0.78-0.14-1.52-0.18-2.24c-0.02-0.73-0.09-1.44-0.22-2.15c-0.13-0.71-0.33-1.4-0.57-2.08
			c-0.26-0.63-0.65-1.28-1.01-1.91l-2.22-3.8c-0.76-1.25-1.49-2.54-2.4-3.65c-0.45-0.54-1.08-0.9-1.74-1.14
			c-0.66-0.24-1.39-0.19-2.14-0.31c-1.5-0.25-2.87-1.08-3.83-2.22c-0.99-1.1-1.91-2.23-2.88-3.34c-0.96-1.11-1.91-2.23-2.91-3.29
			c-0.25-0.26-0.51-0.53-0.78-0.75c-0.24-0.23-0.62-0.24-0.97-0.3c-0.72-0.08-1.45-0.07-2.18-0.05c-2.92,0.11-5.84,0.52-8.7,1.13
			c-1.43,0.31-2.85,0.69-4.23,1.17c-1.36,0.5-2.75,1.07-3.84,2.02c-0.29,0.22-0.45,0.55-0.64,0.85l-0.56,0.95l-1.12,1.9l-2.22,3.8
			l-8.91,15.19c-6,10.09-11.93,20.23-18.39,30.03c-1.65,2.43-3.45,4.75-5.14,7.15c-1.69,2.4-3.35,4.82-4.97,7.27
			c-1.61,2.45-3.19,4.93-4.73,7.42c-1.56,2.49-3,5.04-4.61,7.51L235.4,392.97z"/>
	</g>
	<g>
		<path class="st0" d="M268.94,469.67"/>
	</g>
	<g>
		<path d="M235.47,393.04c-0.97,1.2-1.58,2.66-2.01,4.13c-0.41,1.49-0.62,3.03-0.61,4.57c0.01,0.77,0.04,1.55,0.2,2.29
			c0.15,0.75,0.44,1.46,0.79,2.14c0.71,1.36,1.63,2.61,2.58,3.83c1.93,2.42,3.99,4.74,6.15,6.95c1.09,1.1,2.2,2.17,3.33,3.24
			c1.12,1.07,2.28,2.1,3.33,3.28c1.05,1.17,1.93,2.54,2.44,4.04c0.53,1.48,0.87,3.04,0.95,4.62c0.08,1.58-0.12,3.18-0.66,4.69
			c-0.56,1.5-1.43,2.85-2.48,4.03c-1.05,1.15-2.4,2.27-4.11,2.42c-1.73,0.11-3.23-0.89-4.34-1.98c-2.27-2.26-3.69-5.13-4.86-8.02
			c-1.14-2.92-1.94-5.96-2.41-9.05c-0.23-1.55-0.36-3.12-0.41-4.67c-0.05-1.56-0.05-3.13,0.08-4.69c0.25-3.13,1.03-6.24,2.45-9.07
			c1.42-2.82,3.46-5.34,5.97-7.28c2.51-1.94,5.43-3.28,8.41-4.21c3-0.9,6.02-1.65,9.12-2.13c6.2-0.95,12.55-0.53,18.64,0.78
			c6.07,1.39,12.09,3.05,17.79,5.64c5.67,2.58,10.99,6.02,15.47,10.38c0.58,0.53,1.12,1.09,1.64,1.66c0.53,0.58,1.08,1.12,1.57,1.74
			c1,1.22,1.83,2.57,2.47,4.01c1.29,2.88,1.72,6.13,1.24,9.24c-0.5,3.09-1.67,6.12-3.68,8.56c-0.5,0.61-1.07,1.16-1.68,1.66
			c-0.62,0.5-1.3,0.89-1.96,1.3c-1.33,0.8-2.7,1.6-4.23,2.03c-1.51,0.4-3.2,0.49-4.68-0.17c-1.46-0.62-2.75-1.52-4-2.44
			c-2.49-1.87-4.81-3.95-7.11-6.03c-2.29-2.09-4.52-4.25-6.93-6.19c-1.2-0.97-2.44-1.9-3.7-2.79c-1.27-0.88-2.56-1.76-3.97-2.3
			c-1.4-0.56-3.01-0.52-4.35,0.15c-1.34,0.65-2.29,1.99-2.51,3.47c-0.14,0.75-0.1,1.48,0.42,2c0.49,0.53,1.16,0.94,1.79,1.39
			c1.28,0.88,2.52,1.86,3.65,2.94c2.27,2.14,4.17,4.72,5.45,7.59c0.63,1.44,1.14,2.94,1.39,4.5c0.14,0.78,0.2,1.56,0.2,2.37
			c-0.01,0.81-0.24,1.63-0.56,2.35c-0.66,1.45-1.5,2.76-2.32,4.08l-2.52,3.92c-1.7,2.6-3.44,5.17-5.26,7.69
			c-1.82,2.52-3.69,5.01-5.76,7.35c-1.05,1.16-2.11,2.28-3.19,3.41c-1.09,1.11-2.18,2.24-3.53,3.15c-0.68,0.43-1.48,0.82-2.32,0.88
			c-0.82,0.1-1.65,0.05-2.44-0.12c-1.59-0.32-3.04-0.99-4.44-1.69c-2.78-1.45-5.4-3.12-8.04-4.75c-1.32-0.81-2.63-1.68-3.91-2.53
			c-0.65-0.42-1.26-0.81-1.92-0.89c-0.7-0.09-1.44-0.05-2.14,0.12c-1.42,0.33-2.71,1.15-3.87,2.11c-1.16,0.97-2.19,2.1-3.14,3.3
			c-1.91,2.39-3.54,5.04-5.19,7.65c-1.63,2.61-3.09,5.33-4.04,8.23c-0.93,2.89-1.35,5.97-0.93,8.97c0.36,3.02,1.22,6.04,3.22,8.28
			c1.97,2.22,4.87,3.64,7.81,3.92c1.47,0.15,2.98-0.05,4.32-0.63c1.35-0.56,2.33-1.65,3.16-2.94c3.18-5.34,7.87-9.99,13.57-12.73
			c1.43-0.67,2.94-1.2,4.5-1.54c1.56-0.33,3.15-0.47,4.73-0.44c3.18,0.05,6.29,0.81,9.23,1.89c2.91,1.11,5.86,2.25,8.49,4.04
			c2.6,1.8,4.92,3.82,7.46,5.59c2.51,1.81,5.1,3.48,7.73,5.13c2.63,1.64,5.24,3.32,7.99,4.68c2.75,1.35,5.68,2.36,8.65,3.16
			c2.98,0.78,6.02,1.35,9.09,1.59c1.53,0.11,3.07,0.15,4.57-0.03c0.74-0.1,1.5-0.24,2.09-0.58c0.29-0.17,0.48-0.4,0.48-0.64
			c0.02-0.25-0.15-0.56-0.36-0.85c-0.91-1.14-2.18-2.12-3.27-3.23c-1.11-1.1-2.16-2.27-3.09-3.53c-0.94-1.26-1.73-2.61-2.53-3.93
			c-0.8-1.32-1.63-2.63-2.5-3.91c-1.73-2.56-3.64-4.99-5.58-7.42c-3.84-4.86-7.9-9.58-12.75-13.45c-4.81-3.9-10.2-7.07-15.93-9.45
			l0.04-0.09c5.76,2.31,11.21,5.43,16.08,9.3c4.91,3.83,9.07,8.54,12.93,13.38c1.95,2.41,3.89,4.85,5.65,7.41
			c0.89,1.28,1.73,2.59,2.54,3.91c0.82,1.32,1.61,2.65,2.53,3.87c0.91,1.23,1.95,2.36,3.05,3.44c0.56,0.53,1.11,1.06,1.69,1.58
			c0.57,0.53,1.16,1.05,1.67,1.71c0.24,0.33,0.5,0.72,0.49,1.27c-0.01,0.56-0.43,0.98-0.8,1.19c-0.76,0.44-1.57,0.58-2.35,0.69
			c-1.58,0.2-3.15,0.16-4.72,0.06c-3.12-0.23-6.21-0.78-9.23-1.56c-3.02-0.79-6-1.79-8.82-3.16c-2.82-1.37-5.46-3.04-8.1-4.67
			c-2.64-1.63-5.27-3.31-7.81-5.12c-2.56-1.77-4.96-3.8-7.47-5.53c-2.51-1.72-5.4-2.84-8.27-3.94c-2.88-1.05-5.88-1.79-8.91-1.84
			c-1.51-0.03-3.03,0.11-4.51,0.42c-1.48,0.33-2.91,0.82-4.29,1.47c-2.75,1.29-5.25,3.11-7.48,5.21c-1.11,1.06-2.15,2.17-3.09,3.37
			c-0.95,1.19-1.75,2.49-2.62,3.8c-0.44,0.65-0.91,1.31-1.51,1.89c-0.59,0.58-1.31,1.05-2.06,1.38c-1.51,0.66-3.18,0.86-4.79,0.71
			c-3.21-0.32-6.28-1.82-8.44-4.25c-1.07-1.22-1.87-2.65-2.41-4.16c-0.53-1.52-0.85-3.06-1.04-4.63c-0.44-3.15,0.01-6.38,0.97-9.38
			c0.99-3,2.49-5.79,4.14-8.43c1.67-2.62,3.3-5.27,5.26-7.73c0.98-1.22,2.05-2.4,3.27-3.42c1.22-1.01,2.62-1.91,4.24-2.29
			c0.81-0.19,1.64-0.24,2.48-0.13c0.9,0.12,1.63,0.62,2.27,1.03c1.31,0.86,2.58,1.71,3.89,2.53c2.63,1.64,5.23,3.33,7.95,4.76
			c1.36,0.69,2.76,1.34,4.22,1.64c0.73,0.16,1.46,0.21,2.19,0.12c0.71-0.05,1.36-0.36,1.99-0.75c1.24-0.82,2.33-1.93,3.41-3.02
			c1.07-1.11,2.15-2.23,3.19-3.37c2.06-2.29,3.94-4.76,5.76-7.26c1.82-2.5,3.57-5.06,5.29-7.64l2.54-3.89
			c0.82-1.31,1.67-2.61,2.3-3.99c0.32-0.69,0.52-1.4,0.53-2.14c0-0.75-0.05-1.52-0.18-2.26c-0.24-1.51-0.73-2.97-1.33-4.38
			c-1.24-2.81-3.08-5.33-5.31-7.45c-1.11-1.07-2.31-2.03-3.58-2.91c-0.63-0.46-1.3-0.86-1.86-1.47c-0.28-0.31-0.5-0.71-0.56-1.14
			c-0.07-0.43-0.01-0.84,0.05-1.23c0.25-1.59,1.29-3.07,2.76-3.77c1.45-0.72,3.2-0.75,4.68-0.15c1.48,0.58,2.78,1.48,4.05,2.37
			c1.27,0.9,2.51,1.84,3.71,2.82c2.42,1.96,4.64,4.14,6.92,6.24c2.28,2.09,4.6,4.16,7.08,6c1.24,0.91,2.53,1.79,3.93,2.38
			c1.39,0.62,2.99,0.52,4.45,0.13c1.47-0.42,2.81-1.2,4.12-2.01c0.66-0.41,1.33-0.8,1.91-1.28c0.59-0.48,1.13-1.02,1.62-1.61
			c1.94-2.37,3.06-5.35,3.54-8.36c0.45-3.03,0.01-6.17-1.25-8.95c-0.62-1.39-1.44-2.7-2.42-3.87c-0.47-0.59-1.03-1.14-1.56-1.7
			c-0.52-0.57-1.06-1.12-1.63-1.64c-4.44-4.29-9.72-7.66-15.34-10.18c-5.63-2.52-11.65-4.16-17.67-5.5
			c-6.03-1.27-12.27-1.65-18.35-0.68c-3.02,0.48-6.04,1.25-8.98,2.14c-2.92,0.92-5.74,2.19-8.16,4.04
			c-2.42,1.84-4.39,4.25-5.77,6.96c-1.38,2.72-2.15,5.72-2.41,8.77c-0.14,1.53-0.15,3.06-0.1,4.6c0.04,1.55,0.16,3.07,0.38,4.59
			c0.44,3.04,1.22,6.04,2.32,8.91c1.13,2.84,2.53,5.66,4.67,7.81c1.05,1.05,2.41,1.91,3.85,1.82c1.44-0.11,2.71-1.1,3.71-2.2
			c1.01-1.13,1.86-2.43,2.39-3.83c0.52-1.42,0.72-2.95,0.64-4.46c-0.18-3.02-1.13-6.11-3.22-8.35c-1.01-1.15-2.16-2.19-3.28-3.26
			c-1.13-1.07-2.23-2.16-3.31-3.28c-2.15-2.25-4.19-4.6-6.09-7.06c-0.94-1.24-1.86-2.51-2.57-3.91c-0.35-0.7-0.64-1.44-0.79-2.22
			c-0.16-0.78-0.18-1.56-0.17-2.34c0.01-1.56,0.24-3.12,0.67-4.62c0.45-1.49,1.08-2.95,2.08-4.16L235.47,393.04z"/>
	</g>
	<path class="st1" d="M321.8,525.88c-2.09,1.47-4.92,3.36-8.42,5.34c-2.7,1.53-8.97,4.92-17.73,7.9c-4.96,1.69-9.07,3.09-14.82,3.86
		c-4.66,0.62-8.77,0.42-16.79-0.03c-8.57-0.47-14.78-0.84-22.81-2.68c-7.01-1.61-10.58-2.46-13.77-5.03
		c-1.66-1.33-8.68-6.82-8.15-15.57c0.33-5.48,3.56-11.32,8.66-13.59c7.13-3.18,16.22,1.36,18.91,2.71c3.24,1.62,5.24,3.35,9.29,3.77
		c3,0.31,5.53-0.25,7.88-0.78c4.84-1.08,6.09-2.4,9.15-3.31c4.3-1.28,8.89-1.29,16.19,0.43c8.71,2.05,14.01,6.09,15.33,6.68
		c5.63,2.51,11.94,7.15,20.43,12.08"/>
	
		<rect x="273.07" y="484.62" transform="matrix(0.9829 -0.1839 0.1839 0.9829 -89.5155 76.4897)" class="st0" width="188.93" height="72.26"/>
	<text transform="matrix(1 0 0 1 324.4197 541.7997)" class="st2 st3">Vera</text>
</g>
</svg>
