<svg id="_005-twitter" data-name="005-twitter" xmlns="http://www.w3.org/2000/svg" width="41.988" height="34.115" viewBox="0 0 41.988 34.115">
  <g id="Group_6" data-name="Group 6" transform="translate(0)">
    <path id="Path_40" data-name="Path 40" d="M41.988,52.039a17.947,17.947,0,0,1-4.96,1.359,8.559,8.559,0,0,0,3.787-4.758,17.2,17.2,0,0,1-5.458,2.084,8.607,8.607,0,0,0-14.89,5.886,8.863,8.863,0,0,0,.2,1.963,24.365,24.365,0,0,1-17.742-9,8.61,8.61,0,0,0,2.645,11.5,8.5,8.5,0,0,1-3.889-1.06v.094a8.647,8.647,0,0,0,6.9,8.458,8.591,8.591,0,0,1-2.257.283,7.611,7.611,0,0,1-1.63-.147,8.69,8.69,0,0,0,8.043,6A17.3,17.3,0,0,1,2.06,78.37,16.122,16.122,0,0,1,0,78.252a24.233,24.233,0,0,0,13.205,3.863c15.84,0,24.5-13.121,24.5-24.495,0-.381-.013-.748-.031-1.113A17.172,17.172,0,0,0,41.988,52.039Z" transform="translate(0 -48)" fill="#fff"/>
  </g>
</svg>
