<svg xmlns="http://www.w3.org/2000/svg" width="449.893" height="639.787" viewBox="0 0 449.893 639.787">
  <g id="VeraLOGO" transform="translate(-458.902 -459.515)">
    <g id="Group_2" data-name="Group 2" transform="translate(555.147 913.672)">
      <path id="Path_24" data-name="Path 24" d="M573.667,1001.837" transform="translate(-573.667 -1001.837)" fill="none" stroke="#fff" stroke-width="2.133"/>
    </g>
    <rect id="Rectangle_12" data-name="Rectangle 12" width="337.34" height="129.022" transform="translate(553.481 972.481) rotate(-10.597)" fill="none"/>
    <g id="Group_26" data-name="Group 26">
      <path id="Path_23" data-name="Path 23" d="M502.12,776.716c2.821-4.375,5.41-8.964,8.2-13.392q4.125-6.7,8.446-13.267t8.875-12.981c3-4.285,6.232-8.428,9.16-12.767,11.517-17.5,22.106-35.623,32.8-53.64l15.892-27.123,3.964-6.785,1.982-3.393,1-1.7a5.557,5.557,0,0,1,1.2-1.589,22.08,22.08,0,0,1,6.946-3.7,65.563,65.563,0,0,1,7.589-2.143,89.848,89.848,0,0,1,15.606-2.089,29.452,29.452,0,0,1,3.964.089,3.526,3.526,0,0,1,1.964.607,13.232,13.232,0,0,1,1.446,1.375c1.8,1.911,3.518,3.893,5.25,5.857s3.428,3.982,5.178,5.91a10.983,10.983,0,0,0,6.518,3.732,22.267,22.267,0,0,1,3.928.536,7.86,7.86,0,0,1,3.411,2.214,54.891,54.891,0,0,1,4.393,6.589l4.018,6.767a33.081,33.081,0,0,1,1.875,3.536,26.053,26.053,0,0,1,1.071,3.839,24.665,24.665,0,0,1,.411,3.964,19.9,19.9,0,0,0,.3,3.8,3.113,3.113,0,0,0,2.375,2.25,12.346,12.346,0,0,0,3.732-.321,43.746,43.746,0,0,1,15.767-.446,46.918,46.918,0,0,0,7.767.143,38.125,38.125,0,0,0,7.7-.946,22.915,22.915,0,0,0,12.7-8.178,28.334,28.334,0,0,0,5.91-14.053,24.559,24.559,0,0,0-2.893-14.856,26.17,26.17,0,0,0-4.732-6.035,33.75,33.75,0,0,0-6.071-4.75,18.582,18.582,0,0,0-7.071-2.678,15.951,15.951,0,0,0-3.8.018c-1.286.107-2.589.268-3.857.464a34.771,34.771,0,0,0-3.768.857,7.426,7.426,0,0,1-1.036.232,2.022,2.022,0,0,1-1.321-.232,2.737,2.737,0,0,1-1.321-2.036,20.359,20.359,0,0,1,.036-4.053,14.475,14.475,0,0,0-.161-3.75,5.128,5.128,0,0,0-1.7-3,5.946,5.946,0,0,0-3.321-1.161,11.087,11.087,0,0,1-4.035-.893,4.566,4.566,0,0,1-2.428-3.643,21.681,21.681,0,0,1,.429-4.035c.179-1.286.3-2.553.357-3.839a46.735,46.735,0,0,0-.375-7.732,43.632,43.632,0,0,0-1.625-7.571c-.375-1.232-.839-2.464-1.161-3.8a18.194,18.194,0,0,1-.482-4.035,20.079,20.079,0,0,1,.393-3.982,8.306,8.306,0,0,0-.5-3.536,15.085,15.085,0,0,0-1.911-3.214c-.75-1.071-1.518-2.161-2.232-3.268-1.428-2.25-2.8-4.428-4.089-6.8a8.39,8.39,0,0,1-1.178-4.053,11.8,11.8,0,0,1,.679-4.107,38.232,38.232,0,0,1,3.7-7.107c.7-1.107,1.339-2.232,2.178-3.357a4.744,4.744,0,0,1,.768-.839,1.858,1.858,0,0,1,1.518-.464,1.921,1.921,0,0,1,1.232.928,4.98,4.98,0,0,1,.5,1.036,27.085,27.085,0,0,1,1.036,8.035,39.513,39.513,0,0,1-.857,7.946,9.829,9.829,0,0,0-.268,3.625,12.306,12.306,0,0,0,1.089,3.536,74.905,74.905,0,0,0,3.875,6.714,14.589,14.589,0,0,0,2.286,2.928,6.75,6.75,0,0,0,3.053,1.607c1.018.2,2.571-.018,3.946.428a9.03,9.03,0,0,1,3.768,1.982c1.018.946,1.875,1.839,2.857,2.661.982.8,2.036,1.589,3.089,2.3a15.532,15.532,0,0,0,6.857,2.839,14.366,14.366,0,0,0,3.714,0,5.027,5.027,0,0,0,3.053-1.339,3.8,3.8,0,0,0,.732-3.089,6.111,6.111,0,0,0-1.286-3.178,2.98,2.98,0,0,0-2.928-.821,12.771,12.771,0,0,0-3.482,1.25c-.589.286-1.089.589-1.821.911.179,1-1.839-1.071-1-1.321a3.193,3.193,0,0,1,.446-.428l.8-.625c1.054-.786,2.107-1.553,3.125-2.357a14.69,14.69,0,0,0,2.661-2.589c.357-.482.393-.928.3-.875a6.169,6.169,0,0,0-1.482-.821c-1.2-.536-2.357-1.036-3.589-1.482l-.5-.2c-.179-.161-.375,0-.768-.714-.054-1.161.625-1.054.714-1.2a5.1,5.1,0,0,1,.571-.179c.7-.161,1.357-.232,2-.321s1.286-.179,1.911-.286a4.919,4.919,0,0,0,1.536-.464c.054-.054-.054.036-.036.214.036.161.054.107-.018.054a5.919,5.919,0,0,0-.714-.411c-.571-.286-1.2-.554-1.8-.911a5,5,0,0,1-2.7-3.464,5.5,5.5,0,0,1,.161-2.232,3.637,3.637,0,0,1,1.3-2.018,1.764,1.764,0,0,1,1.518-.214,2.856,2.856,0,0,1,1.071.643,9.557,9.557,0,0,1,1.393,1.589c.8,1.107,1.464,2.232,2.161,3.357.339.554.679,1.107,1.036,1.643a5.723,5.723,0,0,0,1.089,1.321c.071.072.107.036-.018.036-.143.018-.179.143-.143.053a2.353,2.353,0,0,0,.161-.7,16.164,16.164,0,0,0,.036-1.875c-.036-1.3-.161-2.571-.125-3.982a3.411,3.411,0,0,1,.054-.571c.089-.214-.071-.411.5-.893,1.053-.321,1.161.411,1.268.446a3.51,3.51,0,0,1,.268.5c.286.625.518,1.214.8,1.768.554,1.107,1.357,2.036,2.232,1.8.964-.214,1.821-1.232,2.911-2.125a1.74,1.74,0,0,1,1.411-.464,1.009,1.009,0,0,1,.75.964,3.243,3.243,0,0,1-.071.661c-.179.714-.411,1.3-.607,1.928a10.1,10.1,0,0,0-.643,3.625,4.379,4.379,0,0,0,1.446,3.053c.446.446.946.8,1.464,1.393a2.088,2.088,0,0,1,.375.607,1.288,1.288,0,0,1-.036.929,1.8,1.8,0,0,1-1.125.911c-.357.125-.7.2-.964.286a.981.981,0,0,0-.446.214c-.107-.089.232.589.678.946.893.857,1.964,1.518,3.053,2.446.125.214.321.089.464.875-.7,1.2-1,.464-1.161.625-.393-.089-.7-.2-1.018-.286-.625-.214-1.232-.429-1.839-.607a6.628,6.628,0,0,0-1.75-.321c-.571.071-.518.036-.518.607a11.282,11.282,0,0,0,1.393,3.393c.607,1.161,1.3,2.214,1.893,3.5a3.24,3.24,0,0,1,.2.589c.375.125-.536,1.339-.964.946a3.585,3.585,0,0,1-1.036-.625c-.536-.429-1.036-.857-1.518-1.268a7.717,7.717,0,0,0-1.482-1.071.552.552,0,0,0-.2-.072c.125.072.339-.321.268-.232a3.548,3.548,0,0,0,.214.732,27.224,27.224,0,0,1,1.393,3.75,5.147,5.147,0,0,1-.5,4.25,6.173,6.173,0,0,1-3.607,2.214,17.516,17.516,0,0,1-4,.678,20.181,20.181,0,0,1-7.91-1.357,24.736,24.736,0,0,1-6.982-3.928c-1.036-.839-1.982-1.75-2.982-2.536a12.626,12.626,0,0,0-3.286-1.839c-2.375-.8-5.018-1.7-7.339-1.107a2.844,2.844,0,0,0-2.125,2.375,10.931,10.931,0,0,0,.161,3.714,14.3,14.3,0,0,0,3.643,6.589,62.265,62.265,0,0,0,5.2,5.821,17.655,17.655,0,0,0,6.482,3.982,25.13,25.13,0,0,0,15.213.393,30.613,30.613,0,0,0,13.446-7.392c1.893-1.768,3.91-3.518,5.143-5.714a5.915,5.915,0,0,0,.768-3.536c-.089-1.232-.964-2.25-1.179-3.732a4.086,4.086,0,0,1,1.8-3.714c1.107-.786,2.286-1.339,2.893-2.393a3.493,3.493,0,0,0,.125-3.428c-.482-1.161-1.143-2.321-1.714-3.5a27.308,27.308,0,0,1-2.446-7.553c-.554-2.661.2-5.339-.714-7.75a17.615,17.615,0,0,0-3.7-6.7,13.04,13.04,0,0,0-6.535-3.821,19.856,19.856,0,0,0-7.678-.286c-1.232.161-2.553.75-3.964.5a7.206,7.206,0,0,1-3.7-1.607,7.709,7.709,0,0,0-3.178-2,4.97,4.97,0,0,0-3.571.679,55.62,55.62,0,0,0-6.214,4.7,20.152,20.152,0,0,0-4.928,5.928,19.279,19.279,0,0,0-2.464,7.285,8.457,8.457,0,0,0,2.411,6.946c.893.928,1.964,1.607,3,2.518a1.308,1.308,0,0,1,.536,1.107,1.362,1.362,0,0,1-.893.857,5.865,5.865,0,0,1-2.053.268,9.652,9.652,0,0,1-7.142-3.339,20.12,20.12,0,0,1-3.536-7.107,52.037,52.037,0,0,1-2.143-15.606c-.036-5.25.232-10.5.179-15.713-.018-2.625-.125-5.214-.268-7.839a18.334,18.334,0,0,1,1.179-7.875,13.407,13.407,0,0,1,2.071-3.464,16.432,16.432,0,0,0,2.446-2.982c1.357-2.161,1.446-4.839,1.786-7.41l.8-7.821a21.061,21.061,0,0,1,.643-3.964,8.676,8.676,0,0,1,2.321-3.375,19.009,19.009,0,0,0,2.821-2.625,12.227,12.227,0,0,0,1.839-3.3,15.823,15.823,0,0,0,.661-3.768,9.666,9.666,0,0,1,1.339-3.857,14.7,14.7,0,0,1,5.964-5.339,15.832,15.832,0,0,1,3.8-1.357,8.135,8.135,0,0,1,4.089.018c2.571.75,5,1.589,7.535,2.2s5.089,1.214,7.642,1.661a40.067,40.067,0,0,0,7.732.571,28.429,28.429,0,0,0,3.857-.357,12.325,12.325,0,0,1,4.053-.107,17.286,17.286,0,0,1,7.428,3.018,26.58,26.58,0,0,1,5.732,5.589c1.7,2.143,2.536,4.8,3.393,7.214a32.934,32.934,0,0,0,3.464,6.91c.714,1.071,1.446,2.143,2.25,3.161.786,1.036,1.661,2,2.428,3.125a19.791,19.791,0,0,1,2.768,7.571,20.309,20.309,0,0,1-.25,8.035,18.209,18.209,0,0,1-3.678,7.178,52.284,52.284,0,0,1-5.607,5.642l-5.857,5.25L738.8,537.962l-2.982,2.571L734.3,541.8l-.8.625c-.143.107-.286.2-.446.3.464.214-1.446.321-1.375-.589a3.042,3.042,0,0,1,.375-1.232q.241-.482.482-.911.509-.884,1.071-1.714c.732-1.107,1.518-2.178,2.339-3.214a64.078,64.078,0,0,1,11.16-11.267,34.146,34.146,0,0,1,6.821-4.2,17.5,17.5,0,0,1,7.946-1.714,15.311,15.311,0,0,1,7.678,2.8,32.922,32.922,0,0,1,5.928,5.41c1.768,2,3.357,4.089,4.928,6.232a49.352,49.352,0,0,1,4.071,6.875,43.916,43.916,0,0,1,2.839,7.482,24.514,24.514,0,0,1,.768,3.982c.143,1.357.161,2.66.3,3.91a25.646,25.646,0,0,0,2.161,7.285c1,2.357,2.428,4.482,3.714,6.857a22.047,22.047,0,0,1,2.357,7.75,54.389,54.389,0,0,1,.179,7.982,43.67,43.67,0,0,1-.911,7.928,22.347,22.347,0,0,0-.2,7.553,30.151,30.151,0,0,0,.786,3.732,34.411,34.411,0,0,1,1.036,3.911,6.081,6.081,0,0,1-.089,2.268,6.807,6.807,0,0,1-.929,2.036,8.746,8.746,0,0,1-3.321,2.643,10.435,10.435,0,0,0-4.5,5.535c-.411,1.143-.464,2.375-.893,3.8a5.405,5.405,0,0,1-3.053,3.321,12.107,12.107,0,0,1-4.178.464c-1.3.018-2.589.054-3.875.143A73.49,73.49,0,0,0,769,628.85a14.4,14.4,0,0,0-6.642,3.125c-.911.8-1.643,1.839-2.678,2.839A9.465,9.465,0,0,1,756,636.956a17.414,17.414,0,0,1-8.178.357,27.52,27.52,0,0,1-7.66-2.589,24.517,24.517,0,0,1-6.535-4.8c-.964-.982-1.714-2.178-2.5-3.053a2.573,2.573,0,0,0-.982-.786c0,.018.089-.089,0,.054a2.361,2.361,0,0,0-.161.678c-.143,1.179-.107,2.571-.339,3.946a6.9,6.9,0,0,1-1.911,3.964,8.518,8.518,0,0,1-3.857,1.946,17.762,17.762,0,0,1-4.089.482,24.161,24.161,0,0,1-8.017-1.286,12.351,12.351,0,0,1-1.928-.875,3.817,3.817,0,0,1-1.732-1.786,2.056,2.056,0,0,1,.071-1.571,3.8,3.8,0,0,1,.661-1.054,7.681,7.681,0,0,1,1.643-1.428,16.773,16.773,0,0,1,7.732-2.768,12.634,12.634,0,0,1,8.071,1.8,13.968,13.968,0,0,1,5.339,6.285,10.465,10.465,0,0,1,.911,4.143,6.9,6.9,0,0,1-1.286,4.2c-1.839,2.411-4.571,3.446-7.125,4.214a44.551,44.551,0,0,1-7.892,1.375,133.647,133.647,0,0,1-15.8.3c-5.214-.107-10.553-.125-15.8-1.214a38.743,38.743,0,0,1-7.7-2.393c-2.393-1.232-4.625-2.536-6.928-3.821l-13.678-7.75c-2.268-1.286-4.553-2.643-6.8-3.839a76.575,76.575,0,0,0-7.2-2.911,18.884,18.884,0,0,1-3.678-1.786,24.891,24.891,0,0,1-3.214-2.5,15.853,15.853,0,0,1-4.678-6.767,14.791,14.791,0,0,1-.339-8.267,9.046,9.046,0,0,1,2.089-3.768,9.537,9.537,0,0,1,3.607-2.339,26.846,26.846,0,0,1,8.017-1.179c2.643-.107,5.3-.071,7.946.072a87.2,87.2,0,0,1,15.731,2.125c.321.089.661.178,1,.3a3.163,3.163,0,0,1,.607.268c.911.071-.393,2.946-.429,1.875a13.033,13.033,0,0,1-2.143.107,36.953,36.953,0,0,1-4-.321,39.71,39.71,0,0,1-7.821-1.8,16.256,16.256,0,0,1-6.964-4.357c-1.661-2.036-3.375-3.946-5.2-5.8a26.682,26.682,0,0,0-5.875-4.875c-2.214-1.3-4.571-2.464-6.892-3.678a6.292,6.292,0,0,1-1.875-1.286,2.581,2.581,0,0,1-.214-2.678,13.364,13.364,0,0,1,2.607-3.268,23.181,23.181,0,0,0,4.2-6.339c1.161-2.321,2.339-4.7,3.411-7.035a48,48,0,0,0,2.571-7.321,60.112,60.112,0,0,1,2.839-7.428,57.227,57.227,0,0,1,3.678-7.035,14.022,14.022,0,0,0,1.643-3.375,16.537,16.537,0,0,0,.714-3.678,28.25,28.25,0,0,0-.2-3.821c-.125-1.3-.214-2.625-.286-3.946-.143-2.643-.161-5.268-.143-7.892a44.582,44.582,0,0,1,.607-7.964,8.061,8.061,0,0,1,1.768-3.821,11.03,11.03,0,0,1,3.375-2.393,9.4,9.4,0,0,0,1.553-.911.711.711,0,0,0,.214-.964c-.518-.786-1.893-1.286-2.946-2.375a2.325,2.325,0,0,1-.571-2.482,5.145,5.145,0,0,1,1.5-1.678c1.053-.857,2.161-1.571,3.268-2.3,2.214-1.428,4.464-2.8,6.785-4.053a27.111,27.111,0,0,0,6.143-4.607,11.759,11.759,0,0,1,1.536-1.375,4.552,4.552,0,0,1,2.089-.75,6.484,6.484,0,0,1,4.089,1.036c.589.339,1.143.75,1.678,1.107a5.032,5.032,0,0,0,1.482.821c.321.089.554-.179.732-.732a5.629,5.629,0,0,0,.161-1.768,18.074,18.074,0,0,0-2.178-7.232,18.438,18.438,0,0,0-4.839-5.821,9.493,9.493,0,0,0-7.017-1.911,38.141,38.141,0,0,0-7.428,2.161c-2.464.893-4.928,1.768-7.357,2.732A23.551,23.551,0,0,0,647,477.5a28.1,28.1,0,0,0-2.821,2.643,25,25,0,0,1-2.857,2.8,7.729,7.729,0,0,1-3.839,1.5,9.722,9.722,0,0,1-4-.661,7.071,7.071,0,0,0-3.661.054,10.083,10.083,0,0,0-3.321,1.75,56.951,56.951,0,0,0-5.714,5.3c-1.821,1.875-3.678,3.732-5.41,5.678a55.706,55.706,0,0,0-8.66,12.928c-2.2,4.732-4.5,9.464-5.91,14.5-.679,2.518-1.411,5.053-1.857,7.607a9.734,9.734,0,0,0,.018,3.8,9.027,9.027,0,0,0,1.678,3.393,22.2,22.2,0,0,0,6.053,4.821c2.25,1.321,4.5,2.7,6.857,3.8,1.178.554,2.411,1.036,3.571,1.661s2.286,1.321,3.375,2.053a46.471,46.471,0,0,1,6.178,4.893,38.893,38.893,0,0,1,5.035,6.053,64.308,64.308,0,0,1,4.143,6.7l-.161.089a63.849,63.849,0,0,0-4.178-6.642,39.474,39.474,0,0,0-5.053-5.982,46.1,46.1,0,0,0-6.16-4.821c-1.089-.714-2.2-1.393-3.357-2.018-1.143-.607-2.357-1.089-3.553-1.643-2.393-1.107-4.643-2.464-6.91-3.785a22.819,22.819,0,0,1-6.214-4.893,9.589,9.589,0,0,1-1.8-3.589,10.062,10.062,0,0,1-.054-4c.446-2.625,1.161-5.125,1.821-7.678a97.743,97.743,0,0,1,5.839-14.642,56.219,56.219,0,0,1,8.678-13.16c1.75-1.982,3.589-3.839,5.428-5.714a57.413,57.413,0,0,1,5.785-5.41A10.894,10.894,0,0,1,629.577,483a7.82,7.82,0,0,1,4.107-.071,8.641,8.641,0,0,0,3.678.625,6.945,6.945,0,0,0,3.393-1.339,23.022,23.022,0,0,0,2.732-2.714,29.9,29.9,0,0,1,2.893-2.732,24.47,24.47,0,0,1,6.91-3.964c2.446-.982,4.91-1.857,7.375-2.786a40.5,40.5,0,0,1,7.642-2.232,10.539,10.539,0,0,1,7.767,2.089,19.962,19.962,0,0,1,5.178,6.16,19.229,19.229,0,0,1,2.339,7.7,6.224,6.224,0,0,1-.2,2.125,2.482,2.482,0,0,1-.607,1.089,1.609,1.609,0,0,1-1.393.446,5.629,5.629,0,0,1-1.964-1,17.707,17.707,0,0,0-1.607-1.053,5.484,5.484,0,0,0-3.393-.875,3.184,3.184,0,0,0-1.553.553,12.432,12.432,0,0,0-1.375,1.25,29.078,29.078,0,0,1-6.375,4.821c-2.286,1.25-4.5,2.625-6.7,4.035a37.944,37.944,0,0,0-3.143,2.232,4.73,4.73,0,0,0-1.143,1.214,1.082,1.082,0,0,0,.339,1.107,7.454,7.454,0,0,0,1.446,1.089,5.467,5.467,0,0,1,1.661,1.482,2.013,2.013,0,0,1-.446,2.571,9.655,9.655,0,0,1-1.8,1.107,10.045,10.045,0,0,0-3,2.107,6.686,6.686,0,0,0-1.446,3.25,42.118,42.118,0,0,0-.554,7.7c-.018,2.607.036,5.214.179,7.821.071,1.3.179,2.589.286,3.893a29.508,29.508,0,0,1,.214,4.018,17.574,17.574,0,0,1-.768,4.018,14.946,14.946,0,0,1-1.786,3.678A55.992,55.992,0,0,0,644.9,549.3a59.508,59.508,0,0,0-2.75,7.267,50.521,50.521,0,0,1-2.625,7.5c-1.107,2.428-2.232,4.75-3.41,7.125a24.611,24.611,0,0,1-4.428,6.714,13.238,13.238,0,0,0-2.3,2.821,1.042,1.042,0,0,0-.018,1.036,5.557,5.557,0,0,0,1.393.875c2.321,1.2,4.678,2.339,7,3.7a23.7,23.7,0,0,1,3.321,2.339c1.036.893,1.964,1.839,2.893,2.768,1.857,1.875,3.66,3.857,5.3,5.875a14.95,14.95,0,0,0,6.25,3.839,36.493,36.493,0,0,0,7.464,1.7,34.42,34.42,0,0,0,3.821.286,10.971,10.971,0,0,0,1.768-.071c.286-1.054-.536,1.482-.125,1.375-.018-.018-.179-.072-.3-.125-.268-.089-.571-.178-.875-.25a90.132,90.132,0,0,0-15.392-2.053c-2.589-.143-5.2-.179-7.785-.072a25.314,25.314,0,0,0-7.464,1.054,7.19,7.19,0,0,0-4.625,4.928,13.14,13.14,0,0,0,.3,7.232,14.1,14.1,0,0,0,4.178,6.017,24.345,24.345,0,0,0,2.982,2.321,18.385,18.385,0,0,0,3.375,1.625,74.9,74.9,0,0,1,7.357,3c2.375,1.25,4.589,2.589,6.875,3.893l13.678,7.75c2.268,1.268,4.571,2.607,6.839,3.768a38.33,38.33,0,0,0,7.285,2.25c5.035,1.036,10.249,1.071,15.5,1.178a133.629,133.629,0,0,0,15.606-.286,42.488,42.488,0,0,0,7.571-1.321c2.393-.7,4.839-1.732,6.214-3.571,1.375-1.8,1.125-4.464.179-6.66a12.36,12.36,0,0,0-4.678-5.517c-4.125-2.678-9.874-1.75-13.91.928a6.919,6.919,0,0,0-1.321,1.143c-.375.428-.518.857-.429.928a2.622,2.622,0,0,0,1.018.928,11.491,11.491,0,0,0,1.643.75,22.638,22.638,0,0,0,7.428,1.2c2.464-.036,5.143-.446,6.8-1.964a5.194,5.194,0,0,0,1.411-3.018c.214-1.214.179-2.464.339-3.893a4.1,4.1,0,0,1,.321-1.214,1.649,1.649,0,0,1,1.536-.982,2.512,2.512,0,0,1,1.393.554,5.779,5.779,0,0,1,.821.786c.946,1.089,1.607,2.125,2.482,3.018a22.525,22.525,0,0,0,6.089,4.464,25.254,25.254,0,0,0,7.178,2.428,15.553,15.553,0,0,0,7.375-.3,7.808,7.808,0,0,0,3.053-1.768c.857-.821,1.661-1.928,2.714-2.875a15.94,15.94,0,0,1,7.41-3.518,78.279,78.279,0,0,1,7.892-1.071c1.321-.107,2.661-.143,3.982-.161a11.155,11.155,0,0,0,3.589-.339,3.672,3.672,0,0,0,2.089-2.3c.339-1.072.429-2.5.911-3.821a12.172,12.172,0,0,1,5.214-6.41,7.415,7.415,0,0,0,2.8-2.161,4.374,4.374,0,0,0,.768-3.16,34.449,34.449,0,0,0-.982-3.678,26.963,26.963,0,0,1-.839-3.964,24.61,24.61,0,0,1,.214-8.089,41.328,41.328,0,0,0,.893-7.678A52.985,52.985,0,0,0,795,576.62a20.421,20.421,0,0,0-2.178-7.2c-1.2-2.232-2.714-4.482-3.768-6.964a27.312,27.312,0,0,1-2.268-7.75c-.161-1.357-.179-2.678-.3-3.928a22.551,22.551,0,0,0-.714-3.732,43.953,43.953,0,0,0-2.714-7.214,57.716,57.716,0,0,0-8.714-12.767,31.448,31.448,0,0,0-5.625-5.178,13.924,13.924,0,0,0-6.892-2.571,15.971,15.971,0,0,0-7.267,1.554,33.03,33.03,0,0,0-6.553,4,63.708,63.708,0,0,0-10.946,10.981c-.8,1.018-1.571,2.053-2.286,3.125-.357.536-.714,1.071-1.018,1.625-.161.268-.3.554-.446.821a6.349,6.349,0,0,0-.25.607c.036-.411-1.357-.589-.678-.518l.357-.25.75-.589,1.5-1.232,2.982-2.553,11.785-10.41,5.875-5.232a49.65,49.65,0,0,0,5.482-5.482,17.043,17.043,0,0,0,3.464-6.7,18.964,18.964,0,0,0,.268-7.571,18.55,18.55,0,0,0-2.553-7.107c-.7-1.036-1.571-2.018-2.375-3.089-.821-1.053-1.553-2.143-2.286-3.25a33.126,33.126,0,0,1-3.536-7.125c-.875-2.5-1.643-4.946-3.232-6.964-3.089-4.035-7.357-7.517-12.464-8.232a11.161,11.161,0,0,0-3.768.089,29.468,29.468,0,0,1-3.964.357,41.838,41.838,0,0,1-7.91-.607c-2.607-.464-5.16-1.071-7.714-1.678s-5.089-1.5-7.535-2.214c-2.393-.661-5,.2-7.267,1.25a13.847,13.847,0,0,0-5.625,5,8.727,8.727,0,0,0-1.232,3.518,17.358,17.358,0,0,1-.714,3.946,13.234,13.234,0,0,1-1.982,3.535,18.9,18.9,0,0,1-2.911,2.732,8.266,8.266,0,0,0-2.089,3.036,21.011,21.011,0,0,0-.607,3.768l-.821,7.821c-.143,1.3-.286,2.607-.536,3.928a10.487,10.487,0,0,1-1.375,3.8,17.334,17.334,0,0,1-2.536,3.089,12.835,12.835,0,0,0-1.964,3.25c-2.036,4.785-.7,10.2-.893,15.41.036,5.25-.25,10.5-.232,15.713a51.15,51.15,0,0,0,2.071,15.428,19.6,19.6,0,0,0,3.393,6.892,9.009,9.009,0,0,0,6.678,3.143,4.694,4.694,0,0,0,1.821-.232c.607-.25.7-.482.161-.946-.929-.821-2.089-1.553-3.018-2.536a9.06,9.06,0,0,1-2.553-7.41,19.8,19.8,0,0,1,2.553-7.5,20.783,20.783,0,0,1,5.071-6.071,57.188,57.188,0,0,1,6.3-4.768,5.571,5.571,0,0,1,3.964-.75,8.168,8.168,0,0,1,3.411,2.107,6.6,6.6,0,0,0,3.411,1.482c1.25.232,2.446-.3,3.785-.5a20.436,20.436,0,0,1,7.928.268,13.6,13.6,0,0,1,6.857,3.982,18.14,18.14,0,0,1,3.857,6.946,11.186,11.186,0,0,1,.536,3.982,19.819,19.819,0,0,0,.232,3.857,26.589,26.589,0,0,0,2.393,7.339c.554,1.178,1.232,2.286,1.75,3.553a4.272,4.272,0,0,1-.179,4.089c-.75,1.268-2.089,1.875-3.089,2.607a3.308,3.308,0,0,0-1.5,3.018c.125,1.125,1.054,2.286,1.2,3.714a6.678,6.678,0,0,1-.839,4.018c-1.339,2.411-3.393,4.143-5.285,5.946a31.393,31.393,0,0,1-13.785,7.625,26.138,26.138,0,0,1-15.731-.375,19.04,19.04,0,0,1-6.821-4.16A63.234,63.234,0,0,1,686,590.334a15.056,15.056,0,0,1-3.875-7,11.569,11.569,0,0,1-.179-4.089,3.83,3.83,0,0,1,2.821-3.161,9.017,9.017,0,0,1,4.143,0,26.407,26.407,0,0,1,3.857,1.107,14.152,14.152,0,0,1,3.553,1.982c1.071.839,2.018,1.75,3.018,2.536a23.832,23.832,0,0,0,6.678,3.732,19.2,19.2,0,0,0,7.482,1.268,15.716,15.716,0,0,0,3.732-.643,5.277,5.277,0,0,0,2.982-1.786,4.045,4.045,0,0,0,.321-3.339,30.023,30.023,0,0,0-1.357-3.607,3.513,3.513,0,0,1-.3-1.161c-.107-.25.375-.982.839-.893a1.518,1.518,0,0,1,.75.2,10.905,10.905,0,0,1,1.7,1.214l1.5,1.25a3.2,3.2,0,0,0,.625.411c-.071-.214-.732.589-.482.375a1.653,1.653,0,0,0-.125-.339c-.5-1.089-1.232-2.232-1.857-3.393a12.549,12.549,0,0,1-1.553-3.839,1.826,1.826,0,0,1,.339-1.375,1.751,1.751,0,0,1,1.321-.536,6.933,6.933,0,0,1,2.107.357c.643.2,1.286.411,1.893.607a6.651,6.651,0,0,0,.875.25c.125.2.286-.375-.286.482.089.464.018.107-.089.089-.893-.768-2.071-1.5-3.089-2.446a5.1,5.1,0,0,1-.732-.857,1.552,1.552,0,0,1-.2-1.536,1.767,1.767,0,0,1,1.161-.821c.357-.107.661-.179.928-.268s.411-.214.393-.232c.018,0,.018-.018-.143-.25-.339-.393-.911-.821-1.393-1.3a5.624,5.624,0,0,1-1.839-3.875,11.342,11.342,0,0,1,.7-4.071c.2-.625.446-1.268.571-1.821a1.466,1.466,0,0,0,.054-.321c-.071-.107.125.268.232.232.143-.018-.143.054-.357.232-.928.714-1.786,1.946-3.428,2.375a2.665,2.665,0,0,1-2.375-.7,6.2,6.2,0,0,1-1.286-1.768c-.321-.607-.571-1.25-.839-1.8a2.144,2.144,0,0,0-.2-.357c-.054-.2-.2.125.518-.018.286-.286.089-.107.125-.018a2.712,2.712,0,0,0-.036.411c-.018,1.232.107,2.553.143,3.875a15.935,15.935,0,0,1-.036,2.053,3.561,3.561,0,0,1-.3,1.2,1.13,1.13,0,0,1-.875.643,1.316,1.316,0,0,1-.911-.268,6.338,6.338,0,0,1-1.428-1.678c-.375-.554-.714-1.125-1.071-1.679-.679-1.125-1.357-2.232-2.107-3.25a8.118,8.118,0,0,0-1.2-1.357,1.759,1.759,0,0,0-.589-.375.361.361,0,0,0-.357.054,3.429,3.429,0,0,0-.857,2.911,3.538,3.538,0,0,0,2.036,2.464c.536.3,1.107.571,1.714.857a5.934,5.934,0,0,1,.982.571,1.382,1.382,0,0,1,.536.839,1.121,1.121,0,0,1-.446,1.054,5.367,5.367,0,0,1-2.161.768c-.679.125-1.321.214-1.982.3-.643.089-1.3.178-1.875.3a3.005,3.005,0,0,0-.357.107c-.179-.018.089.25.089-.536-.25-.411-.107-.143,0-.143l.411.161c1.232.446,2.464.982,3.678,1.518a6.815,6.815,0,0,1,1.911,1.125,1.527,1.527,0,0,1,.428.786,1.9,1.9,0,0,1-.018.786,3.472,3.472,0,0,1-.536,1.125,16.111,16.111,0,0,1-2.928,2.911c-1.036.839-2.107,1.607-3.143,2.393l-.75.589a1.93,1.93,0,0,0-.268.25c.429.089-1.161-1.768-.643-1,.464-.2,1.107-.571,1.7-.857a13.818,13.818,0,0,1,3.893-1.393,5.64,5.64,0,0,1,2.25.053,4.013,4.013,0,0,1,2.018,1.232,7.505,7.505,0,0,1,1.678,3.982,5.33,5.33,0,0,1-1.089,4.3,6.525,6.525,0,0,1-3.964,1.839,15.944,15.944,0,0,1-4.125,0,17.288,17.288,0,0,1-7.553-3.071c-1.107-.768-2.161-1.536-3.214-2.393-1.036-.839-2-1.857-2.911-2.678a7.193,7.193,0,0,0-3.125-1.625,7.277,7.277,0,0,0-1.768-.25,11.013,11.013,0,0,1-2.089-.143,7.981,7.981,0,0,1-3.821-2,16.1,16.1,0,0,1-2.553-3.25,76.921,76.921,0,0,1-3.946-6.91,14.418,14.418,0,0,1-1.2-3.946,11.393,11.393,0,0,1,.3-4.16,38.292,38.292,0,0,0,.857-7.66,25.269,25.269,0,0,0-.911-7.5,2.306,2.306,0,0,0-.607-1.018c.054-.089-.5.268-.839.75-.732.964-1.411,2.125-2.089,3.232a38.281,38.281,0,0,0-3.589,6.8,10.51,10.51,0,0,0-.625,3.607,6.987,6.987,0,0,0,1.018,3.411c1.2,2.25,2.625,4.5,4,6.678.7,1.089,1.446,2.161,2.2,3.232a16.292,16.292,0,0,1,2.071,3.536,9.739,9.739,0,0,1,.571,4.178,18.156,18.156,0,0,0-.393,3.821,18.724,18.724,0,0,0,.446,3.75c.286,1.214.75,2.446,1.125,3.714a46.442,46.442,0,0,1,1.643,7.785,45.523,45.523,0,0,1,.357,7.964c-.054,1.339-.2,2.661-.375,3.982a24.623,24.623,0,0,0-.429,3.768,3.275,3.275,0,0,0,1.75,2.625,10.311,10.311,0,0,0,3.589.768A7.167,7.167,0,0,1,686.5,608.8a6.53,6.53,0,0,1,2.107,3.714c.589,2.75-.179,5.517.089,7.857a1.535,1.535,0,0,0,.678,1.179.773.773,0,0,0,.571.089,6.864,6.864,0,0,0,.875-.214c1.268-.357,2.589-.643,3.893-.875,1.321-.214,2.625-.357,3.946-.464a18.093,18.093,0,0,1,4.053,0,19.742,19.742,0,0,1,7.517,2.857,34.98,34.98,0,0,1,6.267,4.928,27.6,27.6,0,0,1,4.911,6.3,25.64,25.64,0,0,1,2.982,15.517,29.157,29.157,0,0,1-6.178,14.553,23.906,23.906,0,0,1-13.267,8.482,38,38,0,0,1-7.892.946,47.084,47.084,0,0,1-7.928-.161,43.1,43.1,0,0,0-15.5.393,12.089,12.089,0,0,1-4.053.3,3.988,3.988,0,0,1-3.036-2.875,20.8,20.8,0,0,1-.321-4,24.978,24.978,0,0,0-.393-3.839,24.313,24.313,0,0,0-1.018-3.714,31.459,31.459,0,0,0-1.8-3.411l-3.964-6.785a56.227,56.227,0,0,0-4.285-6.517,7.158,7.158,0,0,0-3.107-2.036,21.161,21.161,0,0,0-3.821-.554,11.556,11.556,0,0,1-6.839-3.964c-1.768-1.964-3.411-3.982-5.143-5.964-1.714-1.982-3.41-3.982-5.2-5.875a16.357,16.357,0,0,0-1.393-1.339,3.208,3.208,0,0,0-1.732-.536,28.273,28.273,0,0,0-3.893-.089,91.128,91.128,0,0,0-15.535,2.018,64.759,64.759,0,0,0-7.553,2.089,21.564,21.564,0,0,0-6.857,3.607,5.308,5.308,0,0,0-1.143,1.518l-1,1.7-2,3.393-3.964,6.785-15.91,27.123c-10.714,18.017-21.3,36.123-32.837,53.622-2.946,4.339-6.16,8.482-9.178,12.767s-5.982,8.607-8.874,12.981q-4.312,6.562-8.446,13.249c-2.786,4.446-5.357,9-8.232,13.41Z" transform="translate(-6.862)" fill="#fff" stroke="#fff" stroke-width="2.133"/>
      <path id="Path_25" data-name="Path 25" d="M495.383,837.9a21,21,0,0,0-3.589,7.375,30.058,30.058,0,0,0-1.089,8.16,20.735,20.735,0,0,0,.357,4.089,14.69,14.69,0,0,0,1.411,3.821,45.868,45.868,0,0,0,4.607,6.839,164.722,164.722,0,0,0,10.981,12.41c1.946,1.964,3.928,3.875,5.946,5.785,2,1.911,4.071,3.75,5.946,5.857a21.163,21.163,0,0,1,4.357,7.214,28.881,28.881,0,0,1,1.7,8.249,21.615,21.615,0,0,1-1.178,8.375,22.976,22.976,0,0,1-4.428,7.2c-1.875,2.053-4.285,4.053-7.339,4.321-3.089.2-5.767-1.589-7.75-3.536-4.053-4.035-6.589-9.16-8.678-14.321a75.761,75.761,0,0,1-4.3-16.16,80.068,80.068,0,0,1-.589-16.713,43.9,43.9,0,0,1,4.375-16.2,38.131,38.131,0,0,1,10.66-13,47.652,47.652,0,0,1,15.017-7.517,121.07,121.07,0,0,1,16.285-3.8,92.316,92.316,0,0,1,33.284,1.393c10.839,2.482,21.588,5.446,31.766,10.071a97.2,97.2,0,0,1,27.623,18.535c1.036.946,2,1.946,2.928,2.964.946,1.036,1.928,2,2.8,3.107a31.437,31.437,0,0,1,4.41,7.16,29.581,29.581,0,0,1,2.214,16.5,31.983,31.983,0,0,1-6.571,15.285,21.4,21.4,0,0,1-3,2.964,33.909,33.909,0,0,1-3.5,2.321,31.326,31.326,0,0,1-7.553,3.625,12.665,12.665,0,0,1-8.357-.3,35.876,35.876,0,0,1-7.142-4.357c-4.446-3.339-8.589-7.053-12.7-10.767-4.089-3.732-8.071-7.589-12.374-11.053-2.143-1.732-4.357-3.393-6.607-4.982a34.5,34.5,0,0,0-7.089-4.107,9.57,9.57,0,0,0-7.767.268,8.3,8.3,0,0,0-4.482,6.2,3.815,3.815,0,0,0,.75,3.571,20.548,20.548,0,0,0,3.2,2.482,52.42,52.42,0,0,1,6.517,5.25,42.666,42.666,0,0,1,9.732,13.553,33.266,33.266,0,0,1,2.482,8.035,23.753,23.753,0,0,1,.357,4.232,10.88,10.88,0,0,1-1,4.2,64.52,64.52,0,0,1-4.143,7.285l-4.5,7c-3.036,4.643-6.142,9.232-9.392,13.731s-6.589,8.946-10.285,13.124c-1.875,2.071-3.768,4.071-5.7,6.089a41.435,41.435,0,0,1-6.3,5.625,9.236,9.236,0,0,1-4.143,1.571,13.2,13.2,0,0,1-4.357-.214,31.92,31.92,0,0,1-7.928-3.018c-4.964-2.589-9.642-5.571-14.356-8.482-2.357-1.446-4.7-3-6.982-4.518a8.612,8.612,0,0,0-3.428-1.589,10.62,10.62,0,0,0-3.821.214,17.29,17.29,0,0,0-6.91,3.768,39.856,39.856,0,0,0-5.607,5.892,150.318,150.318,0,0,0-9.267,13.66,68.016,68.016,0,0,0-7.214,14.7,36.2,36.2,0,0,0-1.661,16.017c.643,5.393,2.178,10.785,5.75,14.785a21.681,21.681,0,0,0,13.946,7,15.553,15.553,0,0,0,7.714-1.125,12.769,12.769,0,0,0,5.643-5.25,58.13,58.13,0,0,1,24.231-22.731,38.114,38.114,0,0,1,8.035-2.75,37.406,37.406,0,0,1,8.446-.786,50.329,50.329,0,0,1,16.481,3.375c5.2,1.982,10.464,4.018,15.16,7.214,4.643,3.214,8.785,6.821,13.321,9.981,4.482,3.232,9.107,6.214,13.8,9.16,4.7,2.928,9.357,5.928,14.267,8.357a85.462,85.462,0,0,0,15.445,5.642,92.771,92.771,0,0,0,16.231,2.839,42.925,42.925,0,0,0,8.16-.054,10.4,10.4,0,0,0,3.732-1.036,1.467,1.467,0,0,0,.857-1.143,2.624,2.624,0,0,0-.643-1.518c-1.625-2.036-3.893-3.786-5.839-5.768a54.47,54.47,0,0,1-5.518-6.3c-1.679-2.25-3.089-4.66-4.518-7.017s-2.911-4.7-4.464-6.982c-3.089-4.571-6.5-8.91-9.964-13.249-6.857-8.678-14.106-17.106-22.767-24.016a115.527,115.527,0,0,0-28.445-16.874l.071-.161a114.955,114.955,0,0,1,28.712,16.606c8.767,6.839,16.2,15.249,23.088,23.891,3.482,4.3,6.946,8.66,10.089,13.231,1.589,2.286,3.089,4.625,4.535,6.982,1.464,2.357,2.875,4.732,4.518,6.91a52.152,52.152,0,0,0,5.446,6.142c1,.947,1.982,1.893,3.018,2.821a25.477,25.477,0,0,1,2.982,3.053,3.622,3.622,0,0,1,.875,2.268,2.638,2.638,0,0,1-1.428,2.125,11.18,11.18,0,0,1-4.2,1.232,44.333,44.333,0,0,1-8.428.107,93.5,93.5,0,0,1-16.481-2.786,85.37,85.37,0,0,1-15.749-5.643,165.19,165.19,0,0,1-14.463-8.339c-4.714-2.911-9.41-5.91-13.946-9.142-4.571-3.161-8.857-6.785-13.339-9.875-4.482-3.071-9.642-5.071-14.767-7.035a49.132,49.132,0,0,0-15.91-3.286,35.9,35.9,0,0,0-8.053.75,36.634,36.634,0,0,0-7.66,2.625,51.744,51.744,0,0,0-13.356,9.3,56.68,56.68,0,0,0-5.517,6.017c-1.7,2.125-3.125,4.446-4.678,6.785a20.7,20.7,0,0,1-2.7,3.375,12.432,12.432,0,0,1-3.678,2.464,17.379,17.379,0,0,1-8.553,1.268,23.341,23.341,0,0,1-15.07-7.589,22.982,22.982,0,0,1-4.3-7.428,39.223,39.223,0,0,1-1.857-8.267,38.062,38.062,0,0,1,1.732-16.749,70.147,70.147,0,0,1,7.392-15.053,157.912,157.912,0,0,1,9.392-13.8,42.866,42.866,0,0,1,5.839-6.107,18.815,18.815,0,0,1,7.571-4.089,12.289,12.289,0,0,1,4.428-.232,10.068,10.068,0,0,1,4.053,1.839c2.339,1.536,4.607,3.053,6.946,4.518,4.7,2.928,9.339,5.946,14.2,8.5a30.654,30.654,0,0,0,7.535,2.928,11.553,11.553,0,0,0,3.911.214,7.885,7.885,0,0,0,3.553-1.339,40.174,40.174,0,0,0,6.089-5.393c1.911-1.982,3.839-3.982,5.7-6.018A160.6,160.6,0,0,0,558.9,959.748c3.25-4.464,6.375-9.035,9.446-13.642l4.535-6.946a63.324,63.324,0,0,0,4.107-7.125,9.351,9.351,0,0,0,.946-3.821,23.51,23.51,0,0,0-.321-4.036,33.514,33.514,0,0,0-2.375-7.821,41.688,41.688,0,0,0-9.482-13.3,51.086,51.086,0,0,0-6.392-5.2,20.821,20.821,0,0,1-3.321-2.625,3.919,3.919,0,0,1-1-2.036,6.9,6.9,0,0,1,.089-2.2,9.11,9.11,0,0,1,4.928-6.732,10.326,10.326,0,0,1,8.357-.268,35.2,35.2,0,0,1,7.232,4.232q3.4,2.411,6.625,5.035c4.321,3.5,8.285,7.392,12.356,11.142a160.274,160.274,0,0,0,12.642,10.714,35.354,35.354,0,0,0,7.017,4.25,12,12,0,0,0,7.946.232,29.872,29.872,0,0,0,7.357-3.589A30.659,30.659,0,0,0,633,913.733a20.954,20.954,0,0,0,2.893-2.875,31.309,31.309,0,0,0,6.321-14.928,28.7,28.7,0,0,0-2.232-15.981,29.527,29.527,0,0,0-4.321-6.91c-.839-1.053-1.839-2.036-2.786-3.036-.928-1.018-1.893-2-2.91-2.928A95.547,95.547,0,0,0,602.573,848.9c-10.053-4.5-20.8-7.428-31.552-9.821a90.332,90.332,0,0,0-32.766-1.214,121.666,121.666,0,0,0-16.035,3.821,47.111,47.111,0,0,0-14.571,7.214,36.333,36.333,0,0,0-10.3,12.428,42.566,42.566,0,0,0-4.3,15.66,66.335,66.335,0,0,0-.179,8.214,69.486,69.486,0,0,0,.679,8.2,74.261,74.261,0,0,0,4.143,15.91c2.018,5.071,4.518,10.107,8.339,13.946,1.875,1.875,4.3,3.41,6.875,3.25,2.571-.2,4.839-1.964,6.625-3.928a22.234,22.234,0,0,0,4.268-6.839,20.121,20.121,0,0,0,1.143-7.964c-.321-5.392-2.018-10.91-5.75-14.91-1.8-2.053-3.857-3.911-5.857-5.821q-3.027-2.866-5.91-5.857a158.617,158.617,0,0,1-10.874-12.606,46.616,46.616,0,0,1-4.589-6.982,15.425,15.425,0,0,1-1.411-3.964,19.378,19.378,0,0,1-.3-4.178,30.715,30.715,0,0,1,1.2-8.25,21.07,21.07,0,0,1,3.714-7.428Z" transform="translate(0 -61.058)" fill="#fff" stroke="#fff" stroke-width="2.133"/>
      <path id="Path_26" data-name="Path 26" d="M650.8,1114.472c-3.732,2.625-8.785,6-15.035,9.535a185.8,185.8,0,0,1-31.659,14.106c-8.857,3.018-16.2,5.518-26.463,6.892-8.321,1.107-15.66.75-29.98-.054-15.3-.839-26.391-1.5-40.73-4.786-12.517-2.875-18.892-4.393-24.588-8.982-2.964-2.375-15.5-12.178-14.553-27.8.589-9.785,6.357-20.213,15.463-24.266,12.731-5.678,28.962,2.428,33.766,4.839,5.785,2.893,9.357,5.982,16.588,6.732,5.357.553,9.874-.446,14.07-1.393,8.642-1.928,10.874-4.285,16.338-5.91,7.678-2.286,15.874-2.3,28.909.768,15.553,3.661,25.016,10.874,27.373,11.928,10.053,4.482,21.32,12.767,36.48,21.57" transform="translate(-1.265 -100.431)" fill="rgba(255,255,255,0)" stroke="#fff" stroke-miterlimit="10" stroke-width="2.133"/>
      <text id="Vera" transform="translate(653.701 1041.915)" fill="#fff" font-size="64" font-family="darloune"><tspan x="0" y="0">Vera</tspan></text>
    </g>
  </g>
</svg>
